<svg id="Camada_1" data-name="Camada 1" xmlns="http://www.w3.org/2000/svg" viewBox="0 0 700.91 697.83"><defs><style>.cls-1{fill:#ada6c3;}.cls-2{fill:#dab580;}.cls-3{fill:#d0acac;}.cls-4{fill:#d9977b;}.cls-5{fill:#97c1b2;}.cls-6{fill:#afbea5;}.cls-7{fill:#fff;}.cls-8{fill:none;}.cls-9{fill:#5c7d68;}</style></defs><path class="cls-1" d="M699.16,250.42c-6.51,22.36-13,25.62-20.74,33.34s-11.79,9.35-17.88,16.67-8.13,23.58-13.83,30.49-17.48,9.35-21.54,16.67-14.64,82.52-22,98-35,56.1-50.81,65.45-52,11.39-65.45,19.11-38.22,28.46-40.25,38.21,4.06,22.36-1.22,31.31c-2.39,4.05-12,18.47-22.52,32.68-12.34-9.8-25.09-4.94-38.87-3.82-15,1.22-37.4-2.85-34.55-8.13s10.16.41,13.41-6.5-5.28-6.51-13.82-14.64c-3.28-3.12-8.65-4.63-14-5.28,7.43-5.35,22.39-13.68,21.35-19.92-1.22-7.32-3.66-17.08-4.47-21.55s3.66-13.82.4-19.11-14.63-4.47-17.88-11.79c-1.78-4-3.81-11.9-6.22-18.5,6.33-2.57,13.63-6.18,14.75-9.55,2-6.1-.81-11,6.1-10.16s21.55,9.35,29.68,6.1,19.51-19.11,21.95-35,5.29-30.08,16.67-32.52,38.21-5.28,37,4.07-26.83,6.1-30.08,13.82,11.79,12.6,18.29,19.92-2,28.46-11,31.3-22.36-2.84-23.58,3.66,10.57,5.29,17.07,6.91,8.13,7.32,9.35,13.82.82,13,11.39,8.54,25.2-13.82,27.23-22.36-5.28-14.23-4.87-19.92,8.13-11.38,13.82-10.57,10.57,7.73,15.45,6.1,4.06-16.26,12.19-21.14,17.08,2.44,21.14-.81,7.32-5.69,4.07-14.64,2.44-13.82,5.69-15.85,11-3.66,14.63-10.17,4.88-26.83,4.88-35.77a48.59,48.59,0,0,0-.66-9c5-2.51,10.37-2,16.52-2.83,8.94-1.22,12.6-3.25,19.51-9.76s-1.63-11.38,0-17.48,5.29-4.88,10.57-8.94,6.1-16.26,11.79-17.89,7.32,2.85,12.6,1.22,8.95-7.32,15.45-21.55,9.35-11.38,15.45-15.44,6.1-10.57,11-17.89,9.75-6.51,15.44-15.45-4.06-37.4-3.25-41.06c.34-1.54,3.81-2.93,7.74-4C697.48,210.15,704.12,233.37,699.16,250.42Z"/><path class="cls-2" d="M687.77,243.92c-5.69,8.94-10.57,8.13-15.44,15.45s-4.88,13.82-11,17.89-8.94,1.22-15.45,15.44-10.16,19.92-15.45,21.55-6.91-2.85-12.6-1.22-6.5,13.82-11.79,17.89-8.94,2.84-10.57,8.94,6.91,11,0,17.48-10.57,8.54-19.51,9.76c-6.15.85-11.52.32-16.52,2.83-.77-3.92-2.28-6.39-5-6.9-4.47-.81-2.85,11-6.5,12.61S537.76,383,533.7,379.7s5.28-11.38,9.75-17.48-.81-15.45-.81-20.33,7.73-51.63,5.29-57.32S536.14,274,536.14,268.72s8.94-12.2,11-20.73-4.47-11.79-3.66-17.08,14.64-43.9,15-51.22-5.29-10.17-3.26-14.64,17.48-5.28,20.33-10.16c.93-1.61,2.54-5.07,4.26-9,10.75-.41,36-.7,44.12,9.4,8.53,10.57,23.58,27.23,36.59,32.11s23.57,2,27.64,4.88c1,.68,2.46,3,4.08,6.55-3.93,1.09-7.4,2.48-7.74,4C683.71,206.52,693.46,235,687.77,243.92Z"/><path class="cls-3" d="M544,135.8c-3.09,9.66-7.48,22.24-9.94,24-4.06,2.84-4.87.4-8.94,4.06s-.81,7.73-3.66,9.35-9.35-.4-13.82,4.07-2.85,11.79-8.13,13.82-12.2-2.85-17.08-2-12.6,1.62-15,7.32-5.69,48-12.19,51.22-7.73-6.1-14.23-3.66-14.64,27.64-19.92,30.49-21.14,7.32-24,16.67,2.85,17.48,2,25.61-1.21,15-5.69,17.89-7.31-4.07-15-2.44-20.33,5.28-28,3.25-17.89-24.39-23.58-25.2-9.76,21.54-16.26,24.39-12.2.4-17.48-10.17-6.1-18.7-17.07-22-22-4.88-24.8,4.88,2.44,25.61,7.72,33.74,3.25,20.33,15.45,21.55S291,346.77,298.72,346s13.42,4.07,11.79,8.54-16.26,14.23-14.63,22.36c.14.7.29,1.41.47,2.14a37.82,37.82,0,0,1-3.32-2.14c-7.32-5.29-13.82-1.63-19.92,3.25-2.68,2.15-3.56,5.5-3.69,8.55-7.74.54-15.5,3.4-18.26-4.89-3.26-9.76-4.48-41.88-13.42-43.91s-17.89,0-27.64-6.91-10.17-9.76-18.3-10.16-19.51,2.44-29.67-13.42-3.66-31.3-7.32-34.15-8.13,2.44-13.82,2.85-9.35-.81-15.45,5.69S111.31,298.4,104,299.62s-11-.41-21.54,0-10.17,4.06-16.67,1.21.4-19.51-4.88-21.54S45.45,287.42,39.35,287s-2-8.13-8.94-9.35-9.76-.81-13-8.94-19.92-24-17.07-35S14.15,224.81,15,219.93s-1.63-8.53,3.25-17.07,4.07-13.42,22.36-21.55,17.48-8.13,21.14-7.31,8.13,5.69,9.76-2.85S78.38,118.3,77.16,113s-11.79-14.23-8.54-22,14.64-3.25,15-7.72S73.09,80.49,71.88,76s-2-10.16,4.87-10.57,13,6.91,22.77.81S112.94,55.7,116.59,56.1s4.48,19.52,17.48,22.77,26-1.22,33.75-9.76,14.63-9.76,15-15-6.91-4.47-7.32-9.76-1.22-11.79-3.66-14.63-12.19-7.32-8.94-11,26.83,7.32,34.15,6.51,12.19-7.73,21.14-7.73,14.63-3.25,17.07-7.72S240.59,0,246.28,0s2,12.2,4.88,13.42,8.53,5.28,6.5,12.6-6.91,15.85-2.44,27.24,13,17.48,22.77,17.48,17.07-8.54,26.83-8.95,13,2,15.45-1.22-2-8.13,8.13-8.94,43.09,7.72,48.78,2.85,19.52-38.22,26-38.22,6.91,35,12.2,39.44,10.16-.82,14.63,6.09-2.84,19.11,1.22,24,15.86,11.79,22.36,11.79c4.07,5.69,4.07,6.1,6.1,8.54s7.32-1.63,13.41-.82,23.18,8.54,32.93,11.79,16.67.41,19.92,5.29,2.44,11,8.54,13.41C538.54,137.39,540.62,136,544,135.8Z"/><path class="cls-4" d="M579.83,145.9c-1.72,3.92-3.33,7.38-4.26,9-2.85,4.88-18.29,5.69-20.33,10.16s3.66,7.32,3.26,14.64-14.23,45.94-15,51.22,5.7,8.54,3.66,17.08-11,15.44-11,20.73,9.35,10.16,11.79,15.85-5.29,52.45-5.29,57.32,5.29,14.23.81,20.33-13.82,14.23-9.75,17.48,10.57-2.44,14.23-4.06,2-13.42,6.5-12.61c2.75.51,4.26,3,5,6.9a48.59,48.59,0,0,1,.66,9c0,8.94-1.22,29.27-4.88,35.77s-11.38,8.13-14.63,10.17-9,6.91-5.69,15.85,0,11.39-4.07,14.64-13-4.07-21.14.81-7.32,19.51-12.19,21.14-9.76-5.28-15.45-6.1-13.42,4.88-13.82,10.57,6.91,11.39,4.87,19.92S456.46,519.55,445.89,524s-10.17-2-11.39-8.54-2.84-12.19-9.35-13.82-18.29-.4-17.07-6.91,14.63-.81,23.58-3.66,17.48-24,11-31.3-21.54-12.2-18.29-19.92,28.86-4.47,30.08-13.82-25.61-6.51-37-4.07-14.23,16.67-16.67,32.52-13.82,31.71-21.95,35-22.77-5.29-29.68-6.1-4.06,4.06-6.1,10.16c-1.12,3.37-8.42,7-14.75,9.55-2-5.47-4.22-10-6.79-10.77-5.69-1.62-6.51,5.69-14.23,4.47-4.88-.76-9.6-4.94-13-11.2,1.06-.54,2.15-1.14,3.25-1.81,10.16-6.09-1.22-26.83,6.91-32.11s8.95,3.66,18.3,4.88,9.35-2.44,11.79-11.39,8.13-18.7,6.09-25.2-.4-24.39,0-29.27-5.28-3.66-12.19-11-9.35-3.25-16.67-.4c-6.13,2.39-10,2.76-15.38-.3-.18-.73-.33-1.44-.47-2.14-1.63-8.13,13-17.89,14.63-22.36s-4.06-9.35-11.79-8.54-12.2,17.89-24.39,16.67-10.16-13.42-15.45-21.55-10.57-24-7.72-33.74,13.82-8.13,24.8-4.88,11.78,11.38,17.07,22,11,13,17.48,10.17,10.57-25.21,16.26-24.39,15.86,23.17,23.58,25.2,20.33-1.63,28-3.25,10.57,5.28,15,2.44,4.88-9.76,5.69-17.89-4.87-16.26-2-25.61,18.7-13.82,24-16.67S434.5,246.36,441,243.92s7.72,6.91,14.23,3.66,9.75-45.53,12.19-51.22,10.17-6.51,15-7.32,11.79,4.06,17.08,2,3.66-9.35,8.13-13.82,11-2.44,13.82-4.07-.41-5.69,3.66-9.35,4.88-1.22,8.94-4.06c2.46-1.73,6.85-14.31,9.94-24a15.45,15.45,0,0,1,6.73,1.2c8.54,3.25,17.89,9.35,27.65,8.95Z"/><path class="cls-5" d="M334.5,445.15c-2.44,9-2.44,12.61-11.79,11.39s-10.17-10.17-18.3-4.88,3.25,26-6.91,32.11c-1.1.67-2.19,1.27-3.25,1.81a42.36,42.36,0,0,1-4.47-12.78c-2.44-13-4.47-25.21-.82-33.74s7.73-14.23-1.22-28.05-5.28-21.55-14.22-22.36a23.4,23.4,0,0,0-4.1,0c.13-3.05,1-6.4,3.69-8.55,6.1-4.88,12.6-8.54,19.92-3.25a37.82,37.82,0,0,0,3.32,2.14c5.4,3.06,9.25,2.69,15.38.3,7.32-2.85,9.76-6.92,16.67.4s12.6,6.1,12.19,11-2,22.76,0,29.27S336.94,436.21,334.5,445.15Z"/><path class="cls-6" d="M423,632.32c-12.69,17.22-20.91,19.5-24.64,17.32-4.88-2.85,3.66,2.85,0,0s-11,9.76-15,20.73-9.76,29.68-13,27.24,6.1-18.29-3.25-24-44.31-27.24-49.19-32.12-12.2-1.22-15.45-4.07,5.28-7.72,8.94-13,15.86-23.18,20.74-28.06a24.25,24.25,0,0,1,3-2.43c5.38.65,10.75,2.16,14,5.28,8.54,8.13,17.08,7.72,13.82,14.64s-10.57,1.22-13.41,6.5,19.51,9.35,34.55,8.13C397.87,627.38,410.62,622.52,423,632.32Z"/><path class="cls-7" d="M629.91,237.67a.63.63,0,0,1-.45-.18.6.6,0,0,1,0-.86h0l.08-.07a.62.62,0,0,1,.85.91h0l-.14-.11.11.14A.69.69,0,0,1,629.91,237.67Z"/><path class="cls-7" d="M628,239.49a.64.64,0,0,1-.47-.21.63.63,0,0,1,0-.88L628,238a.62.62,0,0,1,.83.93l-.43.39A.62.62,0,0,1,628,239.49Z"/><path class="cls-7" d="M628.39,239.08a.6.6,0,0,1-.45-.19.6.6,0,0,1,0-.86l.07.05L628,238a.68.68,0,0,1,.92,0,.59.59,0,0,1,0,.85h0l-.42-.46.42.46,0,0h0A.67.67,0,0,1,628.39,239.08Z"/><path class="cls-7" d="M630,237.62a.62.62,0,0,1-.43-1.08l.49-.46.29-.28.08-.08h0a.63.63,0,1,1,.88.89h0l-.37.36-.5.47A.6.6,0,0,1,630,237.62Z"/><path class="cls-7" d="M628.44,239a.63.63,0,0,1-.46-.2.64.64,0,0,1,0-.89h0c.38-.34.88-.79,1.42-1.3l0,0h0a.63.63,0,0,1,.88,0,.62.62,0,0,1,0,.88h0v0l-1.45,1.33h0A.61.61,0,0,1,628.44,239Z"/><path class="cls-7" d="M628.32,239.37l-.86-.91,0,0,0-.05a.66.66,0,0,1,.91,0,.59.59,0,0,1,0,.85Zm-.37-.51.41.48Z"/><path class="cls-7" d="M412.11,448.85H412a.62.62,0,0,1-.48-.74l.41-2a.64.64,0,0,1,.75-.48.62.62,0,0,1,.49.61.59.59,0,0,1,0,.13c-.12.57-.26,1.23-.41,2A.62.62,0,0,1,412.11,448.85Z"/><path class="cls-7" d="M627.75,239.66a.6.6,0,0,1-.46-.21.63.63,0,0,1,0-.88l.13-.11a.62.62,0,0,1,.83.93l-.12.12A.66.66,0,0,1,627.75,239.66Z"/><path class="cls-7" d="M600.62,231.71a.62.62,0,0,1-.09-1.24c.67-.1,1.35-.18,2-.24a.63.63,0,0,1,.68.57.62.62,0,0,1-.57.67q-1,.09-1.95.24Z"/><path class="cls-7" d="M621.5,235a.59.59,0,0,1-.29-.07,30.52,30.52,0,0,0-3.49-1.55.62.62,0,0,1-.36-.8.61.61,0,0,1,.8-.37,30.31,30.31,0,0,1,3.63,1.61.63.63,0,0,1-.29,1.18Zm-9.19-3.11h-.11a34,34,0,0,0-3.8-.48.62.62,0,0,1-.58-.66.6.6,0,0,1,.67-.58,33.75,33.75,0,0,1,3.93.49.62.62,0,0,1,.51.72A.64.64,0,0,1,612.31,231.9Z"/><path class="cls-7" d="M627.88,239.55a.66.66,0,0,1-.44-.17c-.46-.44-1-.88-1.46-1.29a.63.63,0,0,1,.8-1c.41.34.81.69,1.19,1a8.43,8.43,0,0,0,1.21-.79.62.62,0,0,1,.88.1.63.63,0,0,1-.11.88,10.74,10.74,0,0,1-1.79,1.13A.58.58,0,0,1,627.88,239.55Z"/><path class="cls-7" d="M632.09,234.68h-.15a.63.63,0,0,1-.46-.75,7.08,7.08,0,0,0,.16-1.55,8.72,8.72,0,0,0-.1-1.31.63.63,0,1,1,1.24-.17,9.57,9.57,0,0,1,.11,1.48,7.78,7.78,0,0,1-.2,1.83A.61.61,0,0,1,632.09,234.68Z"/><path class="cls-7" d="M630.82,227.16a.62.62,0,0,1-.58-.38c-.25-.6-.53-1.19-.82-1.79a.65.65,0,0,1,0-.59c.31-.51.74-1.12,1.17-1.7a.62.62,0,0,1,.87-.13.61.61,0,0,1,.13.87c-.31.43-.65.9-.92,1.32.25.5.48,1,.7,1.53a.62.62,0,0,1-.33.82A.52.52,0,0,1,630.82,227.16Z"/><path class="cls-7" d="M633.72,220.06a.64.64,0,0,1-.35-.1.64.64,0,0,1-.17-.87,24.92,24.92,0,0,0,1.47-2.5.61.61,0,0,1,.83-.28.63.63,0,0,1,.29.84,25.7,25.7,0,0,1-1.55,2.63A.63.63,0,0,1,633.72,220.06Z"/><path class="cls-7" d="M636.24,213.19a.62.62,0,0,1-.62-.54,3,3,0,0,0-.66-1.49.62.62,0,0,1,.44-1,7.18,7.18,0,0,0,1.8-.35.63.63,0,0,1,.39,1.19,7.7,7.7,0,0,1-1.1.28,4.55,4.55,0,0,1,.37,1.22.62.62,0,0,1-.54.7Z"/><path class="cls-7" d="M641.6,207.81a.62.62,0,0,1-.5-1,18.84,18.84,0,0,0,1.82-2.93.63.63,0,0,1,.85-.27.64.64,0,0,1,.27.84,20.47,20.47,0,0,1-1.95,3.13A.62.62,0,0,1,641.6,207.81Zm4-7.93a.68.68,0,0,1-.23,0,.62.62,0,0,1-.35-.81l.63-1.6c.22-.58.44-1.16.67-1.73a.62.62,0,0,1,1.16.46c-.22.57-.45,1.14-.67,1.72l-.63,1.61A.61.61,0,0,1,645.63,199.88Zm3.46-8.24a.59.59,0,0,1-.29-.07.62.62,0,0,1-.26-.84,19.33,19.33,0,0,1,2-3.12.63.63,0,0,1,1,.77,18.63,18.63,0,0,0-1.84,2.93A.61.61,0,0,1,649.09,191.64Z"/><path class="cls-7" d="M655.32,185.85a.62.62,0,0,1-.57-.38.5.5,0,0,1,0-.29.56.56,0,0,1-.09-.17.61.61,0,0,1,.39-.79,8.3,8.3,0,0,1,2.12-.41.62.62,0,0,1,.65.48.64.64,0,0,1-.36.72l-1.84.79A.74.74,0,0,1,655.32,185.85Z"/><path class="cls-7" d="M651.5,187.49a.62.62,0,0,1-.58-.38.63.63,0,0,1,.33-.82l1-.41h0a.61.61,0,0,1,.8.33.62.62,0,0,1-.32.82l-1,.42A.69.69,0,0,1,651.5,187.49Z"/><path class="cls-7" d="M655.32,185.85a.63.63,0,0,1-.25-1.2l1.84-.79a.62.62,0,0,1,.82.33.63.63,0,0,1-.32.82l-1.84.79A.74.74,0,0,1,655.32,185.85Z"/><path class="cls-7" d="M699.08,216.42a.76.76,0,0,1-.26-.06l-1.16,0a.61.61,0,0,1-.62-.63.58.58,0,0,1,.62-.62c2.14,0,2.32,0,2.33.66s-.64.65-.88.66Z"/><path class="cls-7" d="M693,216.43h0c-1.25,0-2.62-.05-4-.1a.64.64,0,0,1-.6-.65.62.62,0,0,1,.62-.6h0c1.41,0,2.78.08,4,.1a.63.63,0,1,1,0,1.25ZM682.92,216h0c-1.48-.11-2.84-.24-4-.38a.63.63,0,0,1-.55-.69.63.63,0,0,1,.7-.55c1.19.14,2.53.27,4,.38a.61.61,0,0,1,.58.67A.62.62,0,0,1,682.92,216Z"/><path class="cls-7" d="M672,215.23a.62.62,0,0,1-.59-.44c-.18-.55-.4-1.15-.68-1.84a.63.63,0,0,1,.33-.8.61.61,0,0,1,.81.29c.05.09.27.41,1.29.79a.62.62,0,0,1,.37.8.63.63,0,0,1-.8.37l-.16-.06,0,.07a.64.64,0,0,1-.41.79A.63.63,0,0,1,672,215.23Z"/><path class="cls-7" d="M671.61,221a.57.57,0,0,1-.41-.16.62.62,0,0,1-.06-.88,3.18,3.18,0,0,0,.8-1.84.61.61,0,0,1,.69-.55.62.62,0,0,1,.55.69,4.35,4.35,0,0,1-1.1,2.52A.6.6,0,0,1,671.61,221Z"/><path class="cls-7" d="M666.7,223.63a.63.63,0,0,1-.33-.09.65.65,0,0,1-.29-.43,4.28,4.28,0,0,0-.59-1.64.63.63,0,0,1,1.06-.68,5.23,5.23,0,0,1,.6,1.4c.43-.15.83-.3,1.19-.45a.62.62,0,1,1,.48,1.15c-.57.24-1.2.47-1.93.71A.63.63,0,0,1,666.7,223.63Z"/><path class="cls-7" d="M658.26,223.63a.57.57,0,0,1-.18,0,8.48,8.48,0,0,1-2-.85.63.63,0,0,1-.2-.86.62.62,0,0,1,.86-.21,6,6,0,0,0,1.24.58,7.2,7.2,0,0,1,1.09-1.27.63.63,0,0,1,.85.92,6.09,6.09,0,0,0-1.14,1.41A.61.61,0,0,1,658.26,223.63Z"/><path class="cls-7" d="M655.35,218.09a.8.8,0,0,1-.26-.05.63.63,0,0,1-.31-.83,17.9,17.9,0,0,1,1.94-3.2.61.61,0,0,1,.87-.13.62.62,0,0,1,.14.87,16.62,16.62,0,0,0-1.81,3A.63.63,0,0,1,655.35,218.09Z"/><path class="cls-7" d="M660.5,210.67a.56.56,0,0,1-.35-.11.62.62,0,0,1-.16-.87c.23-.34.42-.64.58-.92a9.81,9.81,0,0,0-1.09-.1.64.64,0,0,1-.6-.65.61.61,0,0,1,.66-.6,12,12,0,0,1,2.09.28.61.61,0,0,1,.41.32.67.67,0,0,1,0,.52A9.42,9.42,0,0,1,661,210.4.6.6,0,0,1,660.5,210.67Z"/><path class="cls-7" d="M642.82,216.59a7.33,7.33,0,0,1-1.47-.15.64.64,0,0,1-.49-.73.63.63,0,0,1,.74-.49,6.5,6.5,0,0,0,2.67-.05l.47-.57a.63.63,0,0,1,.88-.06.62.62,0,0,1,.06.88c-.2.23-.39.46-.56.68a.61.61,0,0,1-.33.22A7.48,7.48,0,0,1,642.82,216.59Zm7-4.93a.62.62,0,0,1-.34-1.15,22.61,22.61,0,0,1,3.75-1.93.62.62,0,0,1,.81.35.63.63,0,0,1-.35.82,20.33,20.33,0,0,0-3.53,1.81A.61.61,0,0,1,649.87,211.66Z"/><path class="cls-7" d="M636.23,213.19a.62.62,0,0,1-.62-.54,3.39,3.39,0,0,0-.1-.48,12.66,12.66,0,0,1-.63-1.14.62.62,0,0,1,.22-.79.63.63,0,0,1,.82.12,4.07,4.07,0,0,1,.72,1.26l.33.48a.62.62,0,0,1-.12.87.64.64,0,0,1-.27.12.62.62,0,0,1-.26.09Z"/><path class="cls-7" d="M641.23,236.69h-.06a14.35,14.35,0,0,1-4.22-1,.63.63,0,0,1,.49-1.15,13.17,13.17,0,0,0,3.85.94.62.62,0,0,1,.57.68A.63.63,0,0,1,641.23,236.69Zm6.23-.41a.62.62,0,0,1-.61-.5.63.63,0,0,1,.49-.74,31.92,31.92,0,0,0,3.94-1.08.63.63,0,0,1,.8.39.63.63,0,0,1-.39.79,33,33,0,0,1-4.11,1.13Zm-15-4.49a.64.64,0,0,1-.52-.27A15,15,0,0,1,630,227.6a.61.61,0,0,1,.4-.78.62.62,0,0,1,.79.4,13.72,13.72,0,0,0,1.71,3.59.63.63,0,0,1-.16.87A.66.66,0,0,1,632.43,231.79ZM632,222.5a.63.63,0,0,1-.37-.12.61.61,0,0,1-.13-.87c.78-1.06,1.6-2.21,2.32-3.4a.63.63,0,0,1,.86-.21.62.62,0,0,1,.21.86c-.74,1.23-1.59,2.4-2.39,3.49A.6.6,0,0,1,632,222.5Z"/><path class="cls-7" d="M660.18,233.29a.63.63,0,0,1-.6-.46,2.09,2.09,0,0,0-.64-1c-.46.26-.92.52-1.39.76a.64.64,0,0,1-.85-.26.62.62,0,0,1,.27-.84c.58-.31,1.16-.63,1.72-1a.64.64,0,0,1,.69,0,3.56,3.56,0,0,1,1.4,1.91.61.61,0,0,1-.43.77A.51.51,0,0,1,660.18,233.29Z"/><path class="cls-7" d="M657.62,242.24a.63.63,0,0,1-.53-.28c-.34-.53-.7-1.12-1.05-1.76a.64.64,0,0,1,0-.64c.3-.48.73-1,1.17-1.61a.66.66,0,0,1,.9-.14.59.59,0,0,1,.13.85l0,.06c-.33.43-.65.84-.9,1.21.28.48.55.94.82,1.34a.63.63,0,0,1-.18.87A.63.63,0,0,1,657.62,242.24Z"/><path class="cls-7" d="M662.81,246.15a4,4,0,0,1-.84-.09.61.61,0,0,1-.49-.73.62.62,0,0,1,.73-.49,4.47,4.47,0,0,0,3.32-.94.63.63,0,0,1,.87.18.61.61,0,0,1-.18.86A6.21,6.21,0,0,1,662.81,246.15Zm7.61-5.07A.63.63,0,0,1,670,240c1.1-1.05,2-1.91,3-2.73a.63.63,0,0,1,.79,1c-1,.78-1.89,1.63-3,2.65A.6.6,0,0,1,670.42,241.08Zm8.84-3.2a.62.62,0,0,1-.06-1.24,22.27,22.27,0,0,0,3.84-.75.63.63,0,0,1,.77.43.62.62,0,0,1-.43.77,22.82,22.82,0,0,1-4,.79Zm9.55-3a.63.63,0,0,1-.28-1.19l.43-.21a33.87,33.87,0,0,1,3.31-1.47.63.63,0,0,1,.42,1.18,32.27,32.27,0,0,0-3.19,1.42l-.42.2A.54.54,0,0,1,688.81,234.86Z"/><path class="cls-7" d="M699.79,235a.62.62,0,0,1-.44-.18,9.49,9.49,0,0,0-1.43-1.21.63.63,0,0,1-.17-.87.64.64,0,0,1,.87-.17,11.57,11.57,0,0,1,1.62,1.37.63.63,0,0,1-.45,1.06Z"/><path class="cls-7" d="M412.6,446.54h-.14a.63.63,0,0,1-.47-.75v0l.07-.33a.62.62,0,1,1,1.22.27h0l-.07.35A.64.64,0,0,1,412.6,446.54Z"/><path class="cls-7" d="M630.85,236.78a.63.63,0,0,1-.41-.15.62.62,0,0,1-.06-.87l.32.25-.29-.29a.64.64,0,0,1,.89,0,.63.63,0,0,1,0,.87A.67.67,0,0,1,630.85,236.78Z"/><path class="cls-7" d="M633.21,234.29a.61.61,0,0,1-.42-.16l-.08-.08a.76.76,0,0,1-.09-.18.66.66,0,0,1,0-.37.65.65,0,0,1,.24-.34.57.57,0,0,1,.35-.12h0a.61.61,0,0,1,.4.16l.06.06h0a.71.71,0,0,1,.14.32.57.57,0,0,1,0,.13.62.62,0,0,1-.16.38h0A.62.62,0,0,1,633.21,234.29Z"/><path class="cls-7" d="M630.87,236.77a.6.6,0,0,1-.45-.19.62.62,0,0,1,0-.88h0l1.06-1.05.57-.61a.62.62,0,0,1,.88,0,.61.61,0,0,1,0,.88l-.59.63c-.33.34-.69.7-1.09,1.09h0A.65.65,0,0,1,630.87,236.77Z"/><path class="cls-7" d="M632.59,235a.63.63,0,0,1-.47-1c.23-.25.43-.48.59-.69h0a.62.62,0,0,1,.88-.1.62.62,0,0,1,.11.87h0c-.18.23-.4.48-.64.75A.63.63,0,0,1,632.59,235Z"/><path class="cls-7" d="M632.53,235.07a.61.61,0,0,1-.42-.16.63.63,0,0,1-.2-.46.61.61,0,0,1,.16-.42.64.64,0,0,1,1.13.4.59.59,0,0,1-.15.38l0,.06A.63.63,0,0,1,632.53,235.07Z"/><path class="cls-7" d="M575.66,152.44a.65.65,0,0,1-.62-.5,7,7,0,0,0-.62-1.73.63.63,0,0,1,.28-.84.64.64,0,0,1,.84.28,9.07,9.07,0,0,1,.73,2,.63.63,0,0,1-.49.74Z"/><path class="cls-7" d="M556.78,187.46a.63.63,0,0,1-.62-.51,38.56,38.56,0,0,1-.56-4.41.63.63,0,0,1,1.25-.08,36,36,0,0,0,.54,4.26.62.62,0,0,1-.5.73Zm-.15-10.86h-.13a.64.64,0,0,1-.49-.75,17.68,17.68,0,0,1,1.5-4.27.64.64,0,0,1,.84-.27.62.62,0,0,1,.27.84,16.12,16.12,0,0,0-1.38,4A.63.63,0,0,1,556.63,176.6Zm3.91-10a.62.62,0,0,1-.48-1,14.11,14.11,0,0,1,3.5-2.91.63.63,0,0,1,.86.19.62.62,0,0,1-.19.86,13.15,13.15,0,0,0-3.21,2.65A.62.62,0,0,1,560.54,166.6Zm9.07-6a.62.62,0,0,1-.31-1.16,23.61,23.61,0,0,0,3.53-2.37.63.63,0,0,1,.88.07.61.61,0,0,1-.07.88,23.43,23.43,0,0,1-3.72,2.5A.6.6,0,0,1,569.61,160.59Z"/><path class="cls-7" d="M557.73,197.24a.58.58,0,0,1-.37-.13.62.62,0,0,1-.13-.87,14.32,14.32,0,0,1,1.1-1.3c-.18-.51-.35-1-.52-1.55a.62.62,0,0,1,.41-.78.61.61,0,0,1,.78.4c.21.64.42,1.27.63,1.88a.64.64,0,0,1-.14.65,12.69,12.69,0,0,0-1.25,1.45A.66.66,0,0,1,557.73,197.24Z"/><path class="cls-7" d="M557.32,214.62a.62.62,0,0,1-.62-.58,26,26,0,0,0-.55-3.47.62.62,0,0,1,.48-.74.63.63,0,0,1,.74.48,26,26,0,0,1,.57,3.64.62.62,0,0,1-.57.67Zm-1.62-8.85a.63.63,0,0,1-.62-.55,16.87,16.87,0,0,1-.13-2.06,13.21,13.21,0,0,1,.11-1.69.63.63,0,1,1,1.24.17,10.68,10.68,0,0,0-.1,1.52,14.59,14.59,0,0,0,.13,1.91.63.63,0,0,1-.55.69Z"/><path class="cls-7" d="M555.57,221.67h-.12c-.65-.13-1.3-.23-1.93-.31a.62.62,0,1,1,.15-1.24c.52.06,1.06.14,1.61.24a10.08,10.08,0,0,0,.68-1.3.63.63,0,0,1,1.15.49,11.2,11.2,0,0,1-1,1.85A.62.62,0,0,1,555.57,221.67Z"/><path class="cls-7" d="M522.86,233.15a.63.63,0,0,1-.23-1.21,39.63,39.63,0,0,0,4-1.85.62.62,0,0,1,.84.26.63.63,0,0,1-.26.84,39,39,0,0,1-4.12,1.91A.46.46,0,0,1,522.86,233.15Zm9.85-5.27a.63.63,0,0,1-.32-1.16c1.36-.84,2.6-1.59,3.85-2.31a.62.62,0,0,1,.62,1.08c-1.24.71-2.46,1.46-3.82,2.3A.63.63,0,0,1,532.71,227.88Zm9.88-5.21a.62.62,0,0,1-.21-1.21,24.82,24.82,0,0,1,4.42-1.19.62.62,0,1,1,.21,1.23,23.48,23.48,0,0,0-4.2,1.14A.83.83,0,0,1,542.59,222.67Z"/><path class="cls-7" d="M513.46,236.91a.73.73,0,0,1-.29-.07.64.64,0,0,1-.26-.85l.93-1.77a.61.61,0,0,1,.5-.33c.65,0,1.31-.12,1.95-.22a.63.63,0,0,1,.18,1.24c-.55.08-1.12.15-1.69.2l-.76,1.46A.65.65,0,0,1,513.46,236.91Z"/><path class="cls-7" d="M506.13,254a.69.69,0,0,1-.2,0,.63.63,0,0,1-.4-.79,22.38,22.38,0,0,0,.85-3.54.62.62,0,0,1,.72-.52.61.61,0,0,1,.51.71,23.29,23.29,0,0,1-.89,3.74A.63.63,0,0,1,506.13,254Zm3-8.78a.59.59,0,0,1-.29-.07.62.62,0,0,1-.26-.84L510.3,241a.62.62,0,0,1,.84-.27.63.63,0,0,1,.26.85l-1.74,3.32A.62.62,0,0,1,509.11,245.2Z"/><path class="cls-7" d="M501.33,261.61h0a.62.62,0,0,1-.62-.62,14,14,0,0,1,.16-2.09.63.63,0,0,1,.47-.51,4,4,0,0,0,1.53-.78.62.62,0,0,1,.88.09.63.63,0,0,1-.1.88,5.1,5.1,0,0,1-1.6.9A12.26,12.26,0,0,0,502,261,.63.63,0,0,1,501.33,261.61Z"/><path class="cls-7" d="M502.33,267a.63.63,0,0,1-.58-.39,15.08,15.08,0,0,1-.67-2.19.63.63,0,0,1,.47-.75.64.64,0,0,1,.75.48,13.2,13.2,0,0,0,.61,2,.62.62,0,0,1-.34.81A.69.69,0,0,1,502.33,267Z"/><path class="cls-7" d="M505.26,273.11h-.12a.63.63,0,0,1-.5-.73,9.32,9.32,0,0,0,.19-1.55,8.68,8.68,0,0,1-1.32-1.26.63.63,0,0,1,.07-.88.64.64,0,0,1,.89.07,6.83,6.83,0,0,0,1.35,1.24.6.6,0,0,1,.27.51,11.21,11.21,0,0,1-.22,2.11A.63.63,0,0,1,505.26,273.11Z"/><path class="cls-7" d="M502.76,284.8a.63.63,0,0,1-.59-.41,4.67,4.67,0,0,1-.26-1.6,12.84,12.84,0,0,1,.64-3.54.63.63,0,0,1,.78-.42.62.62,0,0,1,.42.77,11.84,11.84,0,0,0-.59,3.19,3.37,3.37,0,0,0,.18,1.16.63.63,0,0,1-.37.81A.78.78,0,0,1,502.76,284.8Z"/><path class="cls-7" d="M511.86,287.28a.63.63,0,0,1-.6-.45,16.31,16.31,0,0,1-.39-1.6,6.47,6.47,0,0,0-1.39,0,.61.61,0,0,1-.68-.56.63.63,0,0,1,.56-.68,6.11,6.11,0,0,1,2.22.1.63.63,0,0,1,.44.49,17.58,17.58,0,0,0,.44,1.89.64.64,0,0,1-.43.78Z"/><path class="cls-7" d="M518.58,293a7.64,7.64,0,0,1-3.11-.6.63.63,0,1,1,.51-1.15,7.49,7.49,0,0,0,4,.4.62.62,0,0,1,.7.54.63.63,0,0,1-.54.7A13,13,0,0,1,518.58,293Zm7.95-1.89a.63.63,0,0,1-.59-.41.64.64,0,0,1,.38-.8l1.61-.59,2.59-.93a.62.62,0,0,1,.41,1.18l-2.57.93-1.62.59A.76.76,0,0,1,526.53,291.12Z"/><path class="cls-7" d="M539.2,288h-.07a9.79,9.79,0,0,0-1.88,0,.64.64,0,0,1-.67-.57.62.62,0,0,1,.57-.68,13.22,13.22,0,0,1,1.66,0c.2-.45.43-.93.68-1.43a.63.63,0,0,1,.84-.28.62.62,0,0,1,.28.84c-.32.64-.61,1.23-.84,1.77A.61.61,0,0,1,539.2,288Z"/><path class="cls-7" d="M542.71,280.75a.69.69,0,0,1-.24-.05.63.63,0,0,1-.34-.82,20.14,20.14,0,0,0,1.23-3.73.61.61,0,0,1,.74-.48.62.62,0,0,1,.48.73,21.32,21.32,0,0,1-1.29,4A.64.64,0,0,1,542.71,280.75Z"/><path class="cls-7" d="M543.09,271.06a.63.63,0,0,1-.5-.25,5.56,5.56,0,0,0-1.29-1.27.61.61,0,0,1-.17-.8c.35-.66.69-1.25,1-1.77a.63.63,0,0,1,1.07.66c-.24.38-.48.79-.73,1.24a7,7,0,0,1,1.12,1.2.63.63,0,0,1-.51,1Z"/><path class="cls-7" d="M550,266.1a.65.65,0,0,1-.37-.12c-.23-.17-.46-.34-.67-.51a4.67,4.67,0,0,0-2.25-1.22.64.64,0,0,1-.6-.65.63.63,0,0,1,.65-.6,5.49,5.49,0,0,1,3,1.48l.66.49a.62.62,0,0,1,.14.87A.63.63,0,0,1,550,266.1Z"/><path class="cls-7" d="M558.1,269a.63.63,0,0,1-.5-.24,4.62,4.62,0,0,1-.72-1.42,8.7,8.7,0,0,1-1.43.3.63.63,0,0,1-.16-1.24,8.8,8.8,0,0,0,1.81-.44.61.61,0,0,1,.51,0,.64.64,0,0,1,.31.41,3.91,3.91,0,0,0,.67,1.58.63.63,0,0,1-.11.88A.6.6,0,0,1,558.1,269Z"/><path class="cls-7" d="M563.43,269.66a.62.62,0,0,1-.19-1.22A31.62,31.62,0,0,0,566.7,267a.63.63,0,0,1,.83.31.62.62,0,0,1-.3.83,33.82,33.82,0,0,1-3.61,1.48A.63.63,0,0,1,563.43,269.66Zm11.19-2.51a9.77,9.77,0,0,1-2.48-.36.62.62,0,1,1,.32-1.2,6.52,6.52,0,0,0,3.44.14.63.63,0,0,1,.35,1.2A5.68,5.68,0,0,1,574.62,267.15Zm5-4.39a.54.54,0,0,1-.22,0,.62.62,0,0,1-.37-.8c.33-.89.63-1.86.94-2.89l.22-.72a.63.63,0,0,1,1.2.37l-.22.71c-.32,1.05-.62,2.05-1,3A.61.61,0,0,1,579.65,262.76Z"/><path class="cls-7" d="M587.2,256.23a.62.62,0,0,1-.26-.06,3,3,0,0,0-1.62-.2.64.64,0,0,1-.7-.54.62.62,0,0,1,.54-.7,4.54,4.54,0,0,1,1.22,0,3.72,3.72,0,0,1,.17-1.26.63.63,0,0,1,1.2.37,2.11,2.11,0,0,0,0,1.53.63.63,0,0,1-.14.69A.62.62,0,0,1,587.2,256.23Z"/><path class="cls-7" d="M591.4,249.3a.63.63,0,0,1-.38-1.12c1-.79,2.19-1.64,3.63-2.6a.63.63,0,0,1,.69,1c-1.41.93-2.57,1.76-3.55,2.53A.62.62,0,0,1,591.4,249.3Z"/><path class="cls-7" d="M600.59,243.17a.63.63,0,0,1-.35-1.15q.56-.36.93-.63c-.32-.24-.64-.5-1-.79a.63.63,0,0,1-.05-.88.62.62,0,0,1,.88-.05,14.88,14.88,0,0,0,1.51,1.18.65.65,0,0,1,.28.47.63.63,0,0,1-.21.51,14.66,14.66,0,0,1-1.69,1.24A.63.63,0,0,1,600.59,243.17Z"/><path class="cls-7" d="M597.91,237.71a.62.62,0,0,1-.52-.28,7.92,7.92,0,0,1-1.24-2.68.61.61,0,0,1,.48-.74.63.63,0,0,1,.74.48,6.93,6.93,0,0,0,1,2.24.63.63,0,0,1-.51,1Z"/><path class="cls-7" d="M598.66,232.09a.62.62,0,0,1-.2-1.21,7.59,7.59,0,0,1,1.68-.37c.16-.54.3-1,.43-1.51a.63.63,0,0,1,1.21.33c-.17.6-.35,1.24-.56,1.93a.62.62,0,0,1-.54.45,7.54,7.54,0,0,0-1.81.35A.76.76,0,0,1,598.66,232.09Z"/><path class="cls-7" d="M602.31,223.58a.63.63,0,0,1-.63-.61c0-1.67-.61-1.79-2-2.09l.25-1.23c1.47.31,3,.63,3,3.3a.61.61,0,0,1-.61.63Zm-7.38-6.27a.64.64,0,0,1-.56-.34,17.4,17.4,0,0,1-1.41-4.11.62.62,0,0,1,1.22-.27,16.55,16.55,0,0,0,1.3,3.81.62.62,0,0,1-.27.84A.58.58,0,0,1,594.93,217.31Zm-2.21-10.2a.62.62,0,0,1-.62-.58c-.1-1.3-.16-2.73-.19-4.23a.63.63,0,0,1,.61-.64h0a.61.61,0,0,1,.62.61c0,1.49.09,2.89.18,4.17a.62.62,0,0,1-.57.67Zm-.57-10.49a.63.63,0,0,1-.62-.55c-.13-1-.27-2.09-.41-3.28l-.11-.91a.61.61,0,0,1,.54-.69.62.62,0,0,1,.7.54l.11.91c.14,1.19.28,2.29.41,3.27a.63.63,0,0,1-.54.7Zm-1.36-10.46a.61.61,0,0,1-.61-.53c-.23-1.51-.45-2.87-.68-4.14a.63.63,0,1,1,1.23-.23c.23,1.29.46,2.66.68,4.18a.62.62,0,0,1-.52.71Zm-2-10.33a.63.63,0,0,1-.6-.46,41,41,0,0,0-1.28-4,.62.62,0,0,1,.35-.81.64.64,0,0,1,.81.36,40.72,40.72,0,0,1,1.32,4.07.61.61,0,0,1-.43.76A.51.51,0,0,1,588.74,175.83Z"/><path class="cls-7" d="M584.19,166.33a.63.63,0,0,1-.45-.19,6.23,6.23,0,0,0-1.43-1.1.62.62,0,0,1-.18-.95,12.7,12.7,0,0,0,1.12-1.55.62.62,0,1,1,1.06.66,13.07,13.07,0,0,1-.77,1.13,8.51,8.51,0,0,1,1.09.94.62.62,0,0,1-.44,1.06Z"/><path class="cls-7" d="M586.38,157.79a.76.76,0,0,1-.21,0,.63.63,0,0,1-.38-.8c.43-1.25.82-2.59,1.16-4a.62.62,0,1,1,1.21.3c-.35,1.41-.75,2.78-1.19,4.07A.62.62,0,0,1,586.38,157.79Z"/><path class="cls-7" d="M588.65,147.58h-.07a.63.63,0,0,1-.56-.68c.07-.69.11-1.35.13-2a.66.66,0,0,1,.64-.61.63.63,0,0,1,.61.64c0,.63-.06,1.32-.13,2A.63.63,0,0,1,588.65,147.58Z"/><path class="cls-7" d="M6.16,227.88l-.19,0-1.9-.59a.63.63,0,0,1-.41-.79.62.62,0,0,1,.78-.41l1.91.6a.62.62,0,0,1,.41.78A.63.63,0,0,1,6.16,227.88Z"/><path class="cls-7" d="M120.86,278.19a.62.62,0,0,1-.26-.06c-1-.48-2.23-1.05-3.51-1.7a.63.63,0,0,1,.56-1.12c1.27.65,2.44,1.21,3.47,1.68a.63.63,0,0,1-.26,1.2Zm-8.64-4.41a.56.56,0,0,1-.3-.08c-1.1-.59-2.24-1.22-3.4-1.88a.62.62,0,1,1,.61-1.09c1.16.65,2.29,1.28,3.39,1.88a.62.62,0,0,1-.3,1.17ZM103.77,269a.62.62,0,0,1-.32-.09L100.1,267a.64.64,0,0,1-.23-.86.62.62,0,0,1,.86-.22l3.35,1.94a.63.63,0,0,1-.31,1.17Zm-8.37-4.9a.72.72,0,0,1-.32-.08l-3.34-2a.62.62,0,1,1,.64-1.07l3.33,2a.62.62,0,0,1-.31,1.16Zm-8.34-5a.62.62,0,0,1-.32-.09l-3.33-2a.63.63,0,0,1-.21-.86.62.62,0,0,1,.85-.21l3.34,2a.63.63,0,0,1-.33,1.16Zm-8.32-5a.62.62,0,0,1-.32-.09l-3.34-2a.61.61,0,0,1-.22-.85.63.63,0,0,1,.86-.23l3.34,2a.64.64,0,0,1,.22.86A.63.63,0,0,1,78.74,254.2Zm-8.37-4.91a.58.58,0,0,1-.31-.08c-1.27-.72-2.4-1.35-3.38-1.88a.62.62,0,0,1-.26-.84.64.64,0,0,1,.85-.26c1,.53,2.13,1.17,3.41,1.89a.63.63,0,0,1-.31,1.17ZM61.6,245.2a.57.57,0,0,1-.18,0L57.72,244a.62.62,0,0,1-.41-.78.61.61,0,0,1,.78-.41l3.7,1.15a.62.62,0,0,1-.19,1.22Zm-9.24-2.88a.57.57,0,0,1-.18,0l-3.7-1.16a.62.62,0,0,1,.37-1.19l3.7,1.15a.63.63,0,0,1-.19,1.23Zm-9.24-2.89-.18,0-3.7-1.15a.64.64,0,0,1-.41-.79.62.62,0,0,1,.78-.41l3.7,1.16a.62.62,0,0,1,.41.78A.63.63,0,0,1,43.12,239.43Zm-9.24-2.89a.57.57,0,0,1-.18,0L30,235.36a.63.63,0,0,1-.41-.78.61.61,0,0,1,.78-.41l3.7,1.15a.62.62,0,0,1,.41.78A.63.63,0,0,1,33.88,236.54Zm-9.24-2.88a.57.57,0,0,1-.18,0l-3.7-1.16a.62.62,0,0,1-.41-.78.61.61,0,0,1,.78-.41l3.7,1.15a.63.63,0,0,1-.19,1.23Zm-9.24-2.89-.19,0-3.69-1.15a.64.64,0,0,1-.41-.79.62.62,0,0,1,.78-.41l3.7,1.16a.62.62,0,0,1,.41.78A.63.63,0,0,1,15.4,230.77Z"/><path class="cls-7" d="M127,280.24a4.83,4.83,0,0,1-.92-.1.62.62,0,0,1-.49-.73.63.63,0,0,1,.73-.5c.86.17,1.08,0,1.08,0a.56.56,0,0,1,.32-.38.61.61,0,0,1,.51,0,1.32,1.32,0,0,0,1.32-.15.63.63,0,1,1,.68,1.05,2.59,2.59,0,0,1-2,.41A1.73,1.73,0,0,1,127,280.24Z"/><path class="cls-7" d="M132.42,276a.54.54,0,0,1-.27-.07.62.62,0,0,1-.29-.83c.35-.73.71-1.57,1.13-2.65a.62.62,0,1,1,1.16.45c-.43,1.11-.8,2-1.17,2.74A.61.61,0,0,1,132.42,276Z"/><path class="cls-7" d="M135.17,269.21a.53.53,0,0,1-.25,0,.62.62,0,0,1-.33-.82,8.16,8.16,0,0,1,1-1.91.66.66,0,0,1,.47-.23l2,0a.65.65,0,0,1,.65.6.63.63,0,0,1-.61.65l-1.69,0a9.64,9.64,0,0,0-.69,1.38A.62.62,0,0,1,135.17,269.21Z"/><path class="cls-7" d="M143.8,267.07a.63.63,0,0,1-.06-1.25c1.27-.11,2.54-.25,3.75-.41a.63.63,0,0,1,.17,1.24c-1.24.16-2.52.31-3.81.42Zm9.39-1.4a.62.62,0,0,1-.13-1.23c1.23-.27,2.46-.58,3.65-.91a.62.62,0,0,1,.77.43.63.63,0,0,1-.43.77c-1.21.34-2.47.66-3.73.93Zm9.08-2.75a.63.63,0,0,1-.23-1.21c1.16-.46,2.31-1,3.43-1.51a.63.63,0,0,1,.84.29.62.62,0,0,1-.29.83c-1.15.56-2.33,1.08-3.52,1.55A.64.64,0,0,1,162.27,262.92Zm8.47-4.28a.62.62,0,0,1-.53-.29.64.64,0,0,1,.2-.87c1-.63,2.09-1.33,3.14-2.07a.63.63,0,0,1,.87.16.63.63,0,0,1-.15.87c-1.07.75-2.15,1.46-3.2,2.11A.68.68,0,0,1,170.74,258.64Zm7.71-5.54a.65.65,0,0,1-.49-.23.63.63,0,0,1,.09-.88c.93-.76,1.9-1.59,2.88-2.45a.62.62,0,1,1,.82.94c-1,.87-2,1.71-2.91,2.48A.62.62,0,0,1,178.45,253.1Zm7.08-6.34a.6.6,0,0,1-.45-.19.63.63,0,0,1,0-.88c.9-.86,1.8-1.74,2.71-2.65a.62.62,0,1,1,.88.88c-.92.92-1.82,1.81-2.72,2.67A.6.6,0,0,1,185.53,246.76Z"/><path class="cls-7" d="M192.26,240a.6.6,0,0,1-.43-.18.62.62,0,0,1,0-.88l1.39-1.45a.6.6,0,0,1,.44-.19.73.73,0,0,1,.45.18c.47.47.94.92,1.43,1.36a.62.62,0,0,1,0,.88.61.61,0,0,1-.88,0c-.34-.31-.68-.62-1-1l-.95,1A.65.65,0,0,1,192.26,240Z"/><path class="cls-7" d="M256.71,256.39a.63.63,0,0,1,0-1.25c1.33,0,2.64,0,4,0a.61.61,0,0,1,.63.62.63.63,0,0,1-.62.63q-2,0-4,0Zm-5.93-.06h0l-4-.12a.62.62,0,0,1-.59-.65.59.59,0,0,1,.65-.6c1.31,0,2.63.09,3.94.12a.63.63,0,0,1,0,1.25Zm15.81-.1a.62.62,0,0,1-.62-.6.63.63,0,0,1,.61-.65c1.33,0,2.65-.08,3.94-.12a.63.63,0,1,1,.05,1.25c-1.3,0-2.62.09-4,.12Zm-25.68-.36h0c-1.32-.1-2.64-.21-4-.35a.61.61,0,0,1-.56-.68.63.63,0,0,1,.68-.56c1.31.13,2.61.24,3.92.34a.63.63,0,0,1,0,1.25Zm-9.82-1.07H231c-1.34-.2-2.66-.41-3.93-.64a.63.63,0,1,1,.23-1.23c1.25.22,2.55.44,3.88.63a.62.62,0,0,1,.52.71A.61.61,0,0,1,231.09,254.8Zm-9.7-1.86-.15,0c-1.31-.32-2.61-.67-3.84-1a.63.63,0,1,1,.35-1.2c1.22.36,2.49.71,3.79,1a.64.64,0,0,1,.46.76A.63.63,0,0,1,221.39,252.94ZM212,250a.57.57,0,0,1-.22,0c-1.26-.48-2.5-1-3.68-1.54a.63.63,0,0,1-.31-.83.62.62,0,0,1,.83-.31c1.16.53,2.37,1,3.61,1.51a.62.62,0,0,1,.35.81A.61.61,0,0,1,212,250Zm-8.9-4.25a.56.56,0,0,1-.31-.09c-1.16-.68-2.3-1.41-3.37-2.16a.62.62,0,0,1,.72-1c1,.73,2.15,1.44,3.28,2.1a.63.63,0,0,1-.32,1.17Z"/><path class="cls-7" d="M276.49,255.89a.63.63,0,0,1,0-1.25l1.48,0c.07-.37.19-.86.37-1.51a.63.63,0,0,1,1.21.33,11.28,11.28,0,0,0-.42,1.82.63.63,0,0,1-.6.59l-2,.07Z"/><path class="cls-7" d="M280.37,249.11a.58.58,0,0,1-.19,0,.64.64,0,0,1-.41-.79l1-3.16a.62.62,0,0,1,.79-.4.61.61,0,0,1,.4.78l-1,3.16A.62.62,0,0,1,280.37,249.11Zm2.55-7.9a.69.69,0,0,1-.2,0,.64.64,0,0,1-.4-.79l1-3.15a.63.63,0,0,1,.79-.41.64.64,0,0,1,.4.79l-1,3.16A.62.62,0,0,1,282.92,241.21Z"/><path class="cls-7" d="M285.44,233.3a.55.55,0,0,1-.18,0,.63.63,0,0,1-.42-.78c.21-.69.32-1.12.38-1.38a3.64,3.64,0,0,1-1.35-1.27.63.63,0,0,1,.19-.86.62.62,0,0,1,.86.19,2.29,2.29,0,0,0,1.21,1,.62.62,0,0,1,.42.61,9.73,9.73,0,0,1-.51,2.1A.62.62,0,0,1,285.44,233.3Z"/><path class="cls-7" d="M283.7,224h-.07a.63.63,0,0,1-.55-.69,38.92,38.92,0,0,1,.74-4.19.61.61,0,0,1,.74-.47.63.63,0,0,1,.48.74,39.09,39.09,0,0,0-.72,4.06A.61.61,0,0,1,283.7,224Zm2.39-10.18a.63.63,0,0,1-.6-.81c.39-1.26.84-2.6,1.33-4a.61.61,0,0,1,.79-.38.62.62,0,0,1,.39.79c-.49,1.39-.93,2.72-1.32,4A.62.62,0,0,1,286.09,213.83Zm3.49-9.87a.62.62,0,0,1-.58-.85c.49-1.28,1-2.58,1.54-3.9a.63.63,0,0,1,.82-.35.62.62,0,0,1,.34.81c-.53,1.32-1.05,2.62-1.54,3.89A.61.61,0,0,1,289.58,204Zm4-9.7a.56.56,0,0,1-.25,0,.63.63,0,0,1-.33-.82c.55-1.27,1.1-2.55,1.67-3.85a.63.63,0,1,1,1.15.51c-.57,1.28-1.12,2.56-1.67,3.83A.62.62,0,0,1,293.54,194.26Zm4.22-9.58a.74.74,0,0,1-.25-.05.62.62,0,0,1-.31-.83q.85-1.91,1.74-3.81a.62.62,0,1,1,1.13.52l-1.74,3.8A.61.61,0,0,1,297.76,184.68Zm4.4-9.51a.48.48,0,0,1-.26-.06.61.61,0,0,1-.3-.83c.6-1.27,1.19-2.53,1.79-3.79a.63.63,0,0,1,1.13.54c-.6,1.25-1.19,2.51-1.79,3.79A.63.63,0,0,1,302.16,175.17Zm4.51-9.45a.63.63,0,0,1-.57-.9l1.83-3.77a.62.62,0,0,1,.83-.29.63.63,0,0,1,.29.84c-.6,1.23-1.21,2.49-1.82,3.77A.63.63,0,0,1,306.67,165.72Zm4.56-9.42a.68.68,0,0,1-.27-.07.62.62,0,0,1-.29-.83l1.83-3.77a.63.63,0,0,1,.84-.29.62.62,0,0,1,.29.83l-1.83,3.77A.62.62,0,0,1,311.23,156.3Zm4.57-9.43a.52.52,0,0,1-.27-.07.61.61,0,0,1-.3-.83c.65-1.36,1.25-2.62,1.79-3.78a.62.62,0,1,1,1.13.53c-.54,1.16-1.14,2.43-1.79,3.79A.64.64,0,0,1,315.8,146.87Z"/><path class="cls-7" d="M320.07,137.44a.59.59,0,0,1-.23,0,.64.64,0,0,1-.36-.81c.18-.47.31-.82.39-1.09l-1.24-.07a.62.62,0,1,1,.06-1.24l2,.1a.56.56,0,0,1,.45.22.61.61,0,0,1,.15.48,10.66,10.66,0,0,1-.63,2A.62.62,0,0,1,320.07,137.44Z"/><path class="cls-7" d="M312.41,135h-.05c-1.46-.13-2.86-.27-4.17-.43a.62.62,0,0,1,.15-1.24c1.29.15,2.68.3,4.13.43a.62.62,0,0,1-.06,1.24Zm-10.32-1.4H302c-1.46-.3-2.84-.64-4.1-1a.61.61,0,0,1-.42-.77.62.62,0,0,1,.77-.43c1.23.36,2.57.69,4,1a.63.63,0,0,1-.13,1.24Zm-9.83-3.31a.6.6,0,0,1-.29-.08,20.75,20.75,0,0,1-3.55-2.38.62.62,0,1,1,.8-1,20.28,20.28,0,0,0,3.34,2.24.63.63,0,0,1,.25.85A.61.61,0,0,1,292.26,130.29Zm-7.58-7a.63.63,0,0,1-.52-.28,35.48,35.48,0,0,1-2.14-3.66.64.64,0,0,1,.27-.84.62.62,0,0,1,.84.27,34.76,34.76,0,0,0,2.07,3.53.63.63,0,0,1-.17.87A.66.66,0,0,1,284.68,123.33ZM280,114a.63.63,0,0,1-.58-.38c-.5-1.23-1-2.52-1.56-3.88a.62.62,0,1,1,1.16-.46c.54,1.36,1.05,2.64,1.56,3.86a.63.63,0,0,1-.34.82A.67.67,0,0,1,280,114Zm-3.86-9.68a.62.62,0,0,1-.58-.4c-.49-1.23-1-2.52-1.57-3.85a.63.63,0,1,1,1.16-.48c.55,1.34,1.07,2.63,1.57,3.87a.62.62,0,0,1-.35.81A.59.59,0,0,1,276.13,104.36Z"/><path class="cls-7" d="M272.05,94.64a.62.62,0,0,1-.57-.37c-.22-.49-.44-1-.67-1.49l-1.62-.12a.63.63,0,0,1-.58-.67.65.65,0,0,1,.67-.58c.65,0,1.32.1,2,.16a.64.64,0,0,1,.52.36l.82,1.83a.63.63,0,0,1-.32.83A.74.74,0,0,1,272.05,94.64Z"/><path class="cls-7" d="M240.37,109.73a.66.66,0,0,1-.3-.07.63.63,0,0,1-.25-.85q.9-1.69,1.77-3.21a.62.62,0,0,1,.85-.24.64.64,0,0,1,.24.86c-.58,1-1.16,2.06-1.76,3.18A.64.64,0,0,1,240.37,109.73Zm4.66-7.85a.66.66,0,0,1-.35-.11.63.63,0,0,1-.16-.87A30.29,30.29,0,0,1,246.84,98a.62.62,0,0,1,.92.84,30.09,30.09,0,0,0-2.21,2.8A.63.63,0,0,1,245,101.88Zm6.45-6.37a.62.62,0,0,1-.53-.3.63.63,0,0,1,.2-.86,18.44,18.44,0,0,1,3.41-1.62.63.63,0,0,1,.8.38.62.62,0,0,1-.38.8,16.61,16.61,0,0,0-3.18,1.51A.62.62,0,0,1,251.48,95.51Zm8.62-2.75a.63.63,0,0,1-.07-1.25c1.15-.13,2.4-.22,3.71-.25a.66.66,0,0,1,.64.62.63.63,0,0,1-.62.63c-1.26,0-2.47.11-3.58.24Z"/><path class="cls-7" d="M236.82,116.37a.64.64,0,0,1-.36-.11c-.57-.4-1.12-.8-1.64-1.2a.62.62,0,1,1,.76-1l1,.75.61-1.13a.63.63,0,0,1,.85-.26.61.61,0,0,1,.25.84l-.94,1.77a.64.64,0,0,1-.41.31Z"/><path class="cls-7" d="M214.89,125a2.73,2.73,0,0,1-2-1.12.64.64,0,0,1,.06-.89.63.63,0,0,1,.89.07,1.61,1.61,0,0,0,1.06.69c.47,0,1-.56,1.35-1a.62.62,0,0,1,1,.75A3.07,3.07,0,0,1,214.89,125Zm-4.67-6.33a.61.61,0,0,1-.55-.33c-.54-1-1.26-2.33-2.08-3.55a.63.63,0,0,1,1-.7,41.85,41.85,0,0,1,2.14,3.67.63.63,0,0,1-.26.84A.59.59,0,0,1,210.22,118.65Zm9.28-.54a.57.57,0,0,1-.22,0,.62.62,0,0,1-.36-.81q.45-1.16.93-2.55a.51.51,0,0,1,.09-.16c.3-.42.59-.81.88-1.17a.63.63,0,1,1,1,.78c-.26.32-.53.67-.8,1-.32.91-.62,1.74-.92,2.5A.61.61,0,0,1,219.5,118.11Zm10.65-6.62a.72.72,0,0,1-.32-.08,4.71,4.71,0,0,0-3.53-.8.62.62,0,0,1-.27-1.22,5.93,5.93,0,0,1,4.43.93.63.63,0,0,1-.31,1.17ZM204.66,110a.63.63,0,0,1-.61-.47c-.31-1.28-.61-2.66-.92-4.1a.63.63,0,0,1,.48-.74.61.61,0,0,1,.74.48c.31,1.43.61,2.79.92,4.06a.64.64,0,0,1-.46.76Zm-2.17-10.22a.64.64,0,0,1-.62-.5c-.27-1.34-.55-2.71-.85-4.09a.62.62,0,1,1,1.22-.26c.3,1.38.59,2.76.86,4.1a.63.63,0,0,1-.49.74Zm-2.29-10.2a.63.63,0,0,1-.61-.47c-.36-1.4-.73-2.75-1.11-4a.63.63,0,0,1,1.2-.36c.38,1.27.76,2.63,1.12,4.05a.62.62,0,0,1-.45.76Zm-3.15-10a.6.6,0,0,1-.58-.39c-.53-1.33-1.09-2.6-1.67-3.78a.62.62,0,0,1,1.12-.55c.59,1.2,1.17,2.51,1.71,3.87a.63.63,0,0,1-.35.81A.66.66,0,0,1,197.05,79.61Zm-4.91-9.18a.61.61,0,0,1-.5-.26A25.19,25.19,0,0,0,189,67.1a.63.63,0,0,1,.87-.9,26.2,26.2,0,0,1,2.8,3.23.64.64,0,0,1-.14.88A.63.63,0,0,1,192.14,70.43Zm-7.79-6.77a.63.63,0,0,1-.27-.06,17.8,17.8,0,0,0-3.79-1.35.63.63,0,0,1,.29-1.22,19,19,0,0,1,4,1.45.62.62,0,0,1,.28.83A.61.61,0,0,1,184.35,63.66Z"/><path class="cls-7" d="M172.18,61.94a.63.63,0,0,1-.62-.55.63.63,0,0,1,.54-.7q1-.13,2-.18a.61.61,0,0,1,.66.59.62.62,0,0,1-.59.65q-1,.06-2,.18Z"/><path class="cls-7" d="M220.67,257.07h0a.63.63,0,0,1-.63-.63c0-.69,0-1.36,0-2a.62.62,0,0,1,.63-.61h0a.62.62,0,0,1,.62.63c0,.65,0,1.31,0,2A.62.62,0,0,1,220.67,257.07Z"/><path class="cls-7" d="M221.18,286.1a.62.62,0,0,1-.63-.6l-.11-3.87a.63.63,0,0,1,.61-.65.65.65,0,0,1,.64.61l.11,3.87a.63.63,0,0,1-.61.64Zm-.27-9.67a.62.62,0,0,1-.62-.61c0-1.27-.06-2.57-.09-3.88a.64.64,0,0,1,.61-.64.6.6,0,0,1,.64.62c0,1.3.06,2.6.09,3.87a.63.63,0,0,1-.61.64Zm-.18-9.68a.63.63,0,0,1-.63-.62c0-1.31,0-2.61,0-3.88a.63.63,0,0,1,.62-.63h0a.63.63,0,0,1,.63.62c0,1.27,0,2.57,0,3.87a.63.63,0,0,1-.62.64Z"/><path class="cls-7" d="M223.34,294.5h-.14a9,9,0,0,1-2-.66.65.65,0,0,1-.34-.54l-.07-2a.63.63,0,0,1,.6-.65.65.65,0,0,1,.65.61l.06,1.6a9.44,9.44,0,0,0,1.42.41.63.63,0,0,1,.48.74A.64.64,0,0,1,223.34,294.5Z"/><path class="cls-7" d="M251.31,302.36a.62.62,0,0,1-.62-.57c-.08-.9-.8-1.72-2.13-2.46a.62.62,0,0,1-.24-.85.64.64,0,0,1,.85-.25c1.71.95,2.64,2.11,2.77,3.44a.62.62,0,0,1-.57.68Zm-8.12-4.9h-.14c-1.15-.26-2.43-.51-3.9-.75a.62.62,0,0,1-.52-.72.61.61,0,0,1,.72-.51c1.5.24,2.8.49,4,.76a.64.64,0,0,1,.47.75A.63.63,0,0,1,243.19,297.46Zm-9.91-1.58h-.07l-4-.48a.62.62,0,0,1-.54-.7.61.61,0,0,1,.69-.54l4,.48a.62.62,0,0,1-.08,1.24Z"/><path class="cls-7" d="M247.62,310.38a.62.62,0,0,1-.57-.37c-.26-.57-.55-1.16-.86-1.76a.62.62,0,0,1,.17-.79c.56-.42,1.07-.83,1.52-1.23a.63.63,0,0,1,.83.94c-.36.32-.76.64-1.17,1,.23.46.45.91.65,1.36a.64.64,0,0,1-.31.83A.75.75,0,0,1,247.62,310.38Z"/><path class="cls-7" d="M236.75,349h-.1a.64.64,0,0,1-.52-.72,20.12,20.12,0,0,1,1.14-4.19.62.62,0,0,1,1.16.45,19.68,19.68,0,0,0-1.07,3.93A.61.61,0,0,1,236.75,349Zm4-9.66a.58.58,0,0,1-.33-.1.62.62,0,0,1-.19-.86c.73-1.17,1.5-2.29,2.35-3.53a.64.64,0,0,1,.87-.16.62.62,0,0,1,.16.87c-.84,1.23-1.6,2.34-2.33,3.49A.62.62,0,0,1,240.76,339.31Zm5.81-8.81a.61.61,0,0,1-.32-.08.64.64,0,0,1-.22-.86,30.1,30.1,0,0,0,1.84-3.69.62.62,0,0,1,.81-.34.63.63,0,0,1,.35.81,29.3,29.3,0,0,1-1.92,3.85A.63.63,0,0,1,246.57,330.5Zm3.27-9.9h0a.62.62,0,0,1-.59-.65c0-.28,0-.56,0-.84a18.71,18.71,0,0,0-.29-3.22.62.62,0,0,1,.51-.72.61.61,0,0,1,.72.5,19.21,19.21,0,0,1,.31,3.44c0,.3,0,.6,0,.9A.63.63,0,0,1,249.84,320.6Z"/><path class="cls-7" d="M237.29,357.25a.64.64,0,0,1-.61-.46c-.18-.67-.33-1.35-.45-2a.62.62,0,1,1,1.23-.22c.11.62.26,1.26.43,1.9a.62.62,0,0,1-.44.76A.45.45,0,0,1,237.29,357.25Z"/><path class="cls-7" d="M374.23,418h-.13c-.27-.05-.62-.24-.73-.89a.63.63,0,0,1,.52-.72.66.66,0,0,1,.39.06c.08-.13.18-.3.3-.54a.62.62,0,0,1,1.1.58C375.19,417.43,374.78,418,374.23,418Z"/><path class="cls-7" d="M377.52,411.19a.62.62,0,0,1-.23,0,.63.63,0,0,1-.36-.81c.45-1.17.93-2.46,1.41-3.81a.64.64,0,0,1,.81-.38.63.63,0,0,1,.37.8c-.49,1.36-1,2.65-1.42,3.84A.62.62,0,0,1,377.52,411.19ZM381,401.6a.51.51,0,0,1-.2,0,.62.62,0,0,1-.39-.79c.45-1.28.9-2.57,1.34-3.85a.62.62,0,1,1,1.18.4c-.44,1.29-.89,2.58-1.34,3.86A.62.62,0,0,1,381,401.6Zm3.31-9.64a.51.51,0,0,1-.2,0,.63.63,0,0,1-.39-.79l1.32-3.86a.63.63,0,0,1,.8-.39.62.62,0,0,1,.38.8l-1.31,3.85A.64.64,0,0,1,384.28,392Z"/><path class="cls-7" d="M387.64,382.34a.54.54,0,0,1-.22,0,.63.63,0,0,1-.37-.81c.72-1.9.88-2.16,1.36-2.19a.63.63,0,0,1,.19,0c.63,0,1.24.05,1.84,0a.63.63,0,1,1,0,1.25c-.56,0-1.14,0-1.72,0-.1.21-.26.61-.54,1.34A.62.62,0,0,1,387.64,382.34Z"/><path class="cls-7" d="M396.41,379.47a.62.62,0,0,1-.58-.41.61.61,0,0,1,.36-.8,18.1,18.1,0,0,0,3.48-1.77.63.63,0,1,1,.68,1.05,19.44,19.44,0,0,1-3.72,1.89A.85.85,0,0,1,396.41,379.47Zm8.17-5.82a.61.61,0,0,1-.42-.16.63.63,0,0,1-.05-.88,29.58,29.58,0,0,0,2.43-3.14.63.63,0,1,1,1,.7,31.06,31.06,0,0,1-2.54,3.27A.6.6,0,0,1,404.58,373.65Zm5.5-8.48a.58.58,0,0,1-.28-.07.62.62,0,0,1-.28-.83c.56-1.16,1.1-2.39,1.62-3.67a.62.62,0,0,1,1.16.46c-.53,1.31-1.09,2.57-1.66,3.76A.63.63,0,0,1,410.08,365.17Zm3.67-9.45a.58.58,0,0,1-.19,0,.62.62,0,0,1-.41-.78c.39-1.25.76-2.55,1.11-3.88a.63.63,0,0,1,.77-.44.62.62,0,0,1,.44.76c-.36,1.34-.74,2.67-1.13,3.93A.62.62,0,0,1,413.75,355.72Zm2.52-9.83-.13,0a.62.62,0,0,1-.48-.74c.28-1.33.54-2.66.78-4a.62.62,0,0,1,.73-.5.63.63,0,0,1,.5.73c-.24,1.32-.5,2.66-.79,4A.62.62,0,0,1,416.27,345.89Zm1.78-10H418a.64.64,0,0,1-.53-.72c.21-1.38.4-2.72.57-4a.61.61,0,0,1,.7-.53.62.62,0,0,1,.54.7c-.18,1.29-.36,2.64-.57,4A.63.63,0,0,1,418.05,335.89Zm1.32-10.07h-.07a.63.63,0,0,1-.55-.7h0c-.19-1.2-.35-2.51-.46-3.9a.63.63,0,0,1,1.25-.1c.11,1.39.26,2.69.46,3.88a.48.48,0,0,1,0,.17v.1A.63.63,0,0,1,419.37,325.82Zm-.33-.66.33,0-.21-.06Zm-.32-9.45h0a.62.62,0,0,1-.62-.63c0-1.3,0-2.68.13-4.08a.63.63,0,0,1,.65-.59.61.61,0,0,1,.59.65c-.07,1.39-.11,2.75-.12,4A.62.62,0,0,1,418.72,315.71Zm.61-10.12h-.06a.62.62,0,0,1-.56-.68c.14-1.34.31-2.7.5-4a.63.63,0,0,1,.7-.53.61.61,0,0,1,.54.7c-.19,1.34-.35,2.68-.49,4A.64.64,0,0,1,419.33,305.59Zm1.48-10h-.12a.63.63,0,0,1-.5-.73c.26-1.35.53-2.7.82-4a.64.64,0,0,1,.75-.47.62.62,0,0,1,.47.74c-.29,1.29-.56,2.62-.81,4A.62.62,0,0,1,420.81,295.55Zm2.29-9.88-.17,0a.64.64,0,0,1-.43-.78c.38-1.35.79-2.67,1.2-3.9a.62.62,0,1,1,1.18.39c-.4,1.22-.8,2.52-1.18,3.85A.61.61,0,0,1,423.1,285.67Z"/><path class="cls-7" d="M426.47,276.12a.75.75,0,0,1-.26-.05.64.64,0,0,1-.32-.83l.5-1.08c-.33-.05-.7-.1-1.11-.14a.63.63,0,0,1,.13-1.25,19.61,19.61,0,0,1,2,.31.63.63,0,0,1,.43.89c-.29.57-.57,1.16-.84,1.78A.63.63,0,0,1,426.47,276.12Z"/><path class="cls-7" d="M419.28,273.63h0l-4.06-.13a.63.63,0,0,1-.61-.64.65.65,0,0,1,.64-.61l4.08.13a.62.62,0,0,1,.6.65A.63.63,0,0,1,419.28,273.63Zm-10.18-.25h0c-1.3,0-2.66-.05-4.06-.06a.63.63,0,1,1,0-1.25h0c1.4,0,2.76,0,4.07.06a.62.62,0,0,1,.61.63A.63.63,0,0,1,409.1,273.38Zm-10.16-.14h0l-4.07-.05a.62.62,0,0,1-.61-.63.62.62,0,0,1,.62-.62h0l4.06.05a.63.63,0,0,1,0,1.25Zm-10.17-.13h0l-4.06-.06a.63.63,0,0,1-.62-.64.65.65,0,0,1,.64-.61l4.06.06a.63.63,0,0,1,.62.63A.63.63,0,0,1,388.77,273.11Zm-10.16-.18h0l-4.07-.09a.63.63,0,1,1,0-1.25l4.06.09a.63.63,0,1,1,0,1.25Zm-10.16-.26h0l-4.05-.14a.63.63,0,1,1,0-1.25l4.05.14a.63.63,0,0,1,0,1.25Zm-10.15-.38h0l-4.06-.2a.62.62,0,0,1-.59-.65.64.64,0,0,1,.65-.59l4.06.19a.63.63,0,0,1,0,1.25Zm-10.14-.54h0l-4.07-.28a.61.61,0,0,1-.57-.67.64.64,0,0,1,.66-.58l4.05.28a.63.63,0,0,1,0,1.25ZM338,271h0c-1.37-.12-2.72-.24-4.06-.38a.62.62,0,1,1,.13-1.24l4,.38A.63.63,0,0,1,338,271Zm-10.1-1.07h-.08c-1.37-.17-2.72-.35-4-.54a.63.63,0,0,1,.18-1.24c1.31.19,2.65.37,4,.54a.62.62,0,0,1-.07,1.24Zm-10.05-1.51h-.11c-1.39-.25-2.74-.52-4-.79a.63.63,0,0,1,.26-1.23c1.28.28,2.6.54,4,.79a.63.63,0,0,1-.11,1.24Zm-9.9-2.26-.18,0c-1.4-.4-2.71-.83-3.9-1.27a.62.62,0,0,1,.43-1.17c1.16.43,2.45.85,3.82,1.24a.64.64,0,0,1,.43.78A.63.63,0,0,1,308,266.15Zm-9.38-3.82a.62.62,0,0,1-.32-.09,15.93,15.93,0,0,1-3.3-2.59.63.63,0,0,1,0-.88.61.61,0,0,1,.88,0,14.66,14.66,0,0,0,3,2.37.62.62,0,0,1,.21.85A.63.63,0,0,1,298.59,262.33Zm-5.48-7.9a.63.63,0,0,1-.62-.51l-.05-.28c-.2-1.07-.43-2.33-.72-3.7a.63.63,0,0,1,1.23-.25c.28,1.38.52,2.65.72,3.72l.05.28a.62.62,0,0,1-.5.73Zm-2.2-9.91a.62.62,0,0,1-.6-.45c-.41-1.4-.83-2.67-1.28-3.79a.63.63,0,0,1,1.17-.46c.45,1.15.89,2.47,1.31,3.91a.63.63,0,0,1-.43.77A.52.52,0,0,1,290.91,244.52Z"/><path class="cls-7" d="M284.44,236.26a.57.57,0,0,1-.18,0,.63.63,0,0,1-.42-.78l.58-1.89a.55.55,0,0,1,.12-.24.63.63,0,0,1,.76-.16,6.59,6.59,0,0,1,1.76,1.32.63.63,0,0,1,0,.89.62.62,0,0,1-.88,0,6.77,6.77,0,0,0-.78-.68l-.35,1.15A.62.62,0,0,1,284.44,236.26Z"/><path class="cls-7" d="M281.08,247.3l-.18,0a.63.63,0,0,1-.42-.78l1.35-4.41a.62.62,0,1,1,1.19.36l-1.34,4.41A.63.63,0,0,1,281.08,247.3Z"/><path class="cls-7" d="M278.49,255.82a.58.58,0,0,1-.19,0,.62.62,0,0,1-.41-.78l.58-1.91a.63.63,0,0,1,1.2.36l-.59,1.91A.62.62,0,0,1,278.49,255.82Z"/><path class="cls-7" d="M352.25,534.62a.61.61,0,0,1-.47-.21.62.62,0,0,1,.05-.88,5.73,5.73,0,0,0,1.14-1.39.63.63,0,0,1,1.08.63,6.94,6.94,0,0,1-1.39,1.69A.61.61,0,0,1,352.25,534.62Z"/><path class="cls-7" d="M354.92,528.46h-.09a.62.62,0,0,1-.53-.7c.13-1,.22-2,.31-3v-.18a.66.66,0,0,1,.68-.57.63.63,0,0,1,.57.68l0,.18c-.09,1.07-.18,2.08-.32,3.08A.62.62,0,0,1,354.92,528.46Zm.95-8.05h-.13a.63.63,0,0,1-.49-.74,15.64,15.64,0,0,1,1-3.22.62.62,0,1,1,1.14.5,14.65,14.65,0,0,0-.91,3A.62.62,0,0,1,355.87,520.41Z"/><path class="cls-7" d="M359.7,513.44a.63.63,0,0,1-.4-1.11,11.36,11.36,0,0,1,1.28-.93,3.49,3.49,0,0,1,0-1.84.63.63,0,1,1,1.21.32,2.12,2.12,0,0,0,.1,1.52.64.64,0,0,1-.26.81,10.94,10.94,0,0,0-1.55,1.08A.62.62,0,0,1,359.7,513.44Z"/><path class="cls-7" d="M364.94,505.49a.62.62,0,0,1-.47-.22.63.63,0,0,1,.06-.88c.93-.8,2-1.67,3.31-2.58a.63.63,0,0,1,.73,1c-1.24.88-2.32,1.73-3.22,2.5A.57.57,0,0,1,364.94,505.49Zm8.46-5.94a.62.62,0,0,1-.53-.3.63.63,0,0,1,.2-.86c1.18-.72,2.38-1.43,3.58-2.12a.63.63,0,0,1,.62,1.09c-1.19.68-2.38,1.38-3.55,2.09A.55.55,0,0,1,373.4,499.55Zm9-5.13a.63.63,0,0,1-.3-1.18l2.78-1.51.86-.46a.63.63,0,0,1,.85.26.62.62,0,0,1-.26.84l-.85.46-2.79,1.51A.6.6,0,0,1,382.39,494.42Z"/><path class="cls-7" d="M391.44,489.43a.63.63,0,0,1-.53-.3.62.62,0,0,1,.21-.86,14.4,14.4,0,0,0,1.32-.87c0-.59,0-1.17,0-1.75a.61.61,0,0,1,.62-.6h0a.63.63,0,0,1,.61.64,17.76,17.76,0,0,0,0,1.93.61.61,0,0,1-.2.51,12.17,12.17,0,0,1-1.74,1.21A.66.66,0,0,1,391.44,489.43Z"/><path class="cls-7" d="M394.18,480.53a.52.52,0,0,1-.21,0,.62.62,0,0,1-.37-.8,23.83,23.83,0,0,1,1.71-3.65.62.62,0,0,1,.85-.24.64.64,0,0,1,.24.86,22.37,22.37,0,0,0-1.63,3.46A.63.63,0,0,1,394.18,480.53Zm5-8.43a.6.6,0,0,1-.38-.13.62.62,0,0,1-.11-.88c.7-.9,1.47-1.84,2.51-3.07a.62.62,0,1,1,.95.81c-1,1.21-1.79,2.15-2.48,3A.6.6,0,0,1,399.18,472.1Zm6.29-7.57a.62.62,0,0,1-.48-1c.91-1.13,1.69-2.15,2.36-3.1a.63.63,0,0,1,.87-.15.62.62,0,0,1,.15.87c-.69,1-1.48,2-2.41,3.17A.65.65,0,0,1,405.47,464.53Zm5.39-8.21a.58.58,0,0,1-.26-.06.62.62,0,0,1-.31-.83,21.51,21.51,0,0,0,1.29-3.59.61.61,0,0,1,.76-.45.64.64,0,0,1,.45.76,23.54,23.54,0,0,1-1.36,3.81A.63.63,0,0,1,410.86,456.32Z"/><path class="cls-7" d="M412.76,446.76a.63.63,0,0,1-.63-.6c0-.52-.07-1.05-.14-1.58-.38-.16-.87-.4-1.53-.73a.62.62,0,1,1,.57-1.11c.83.42,1.4.68,1.75.82a.6.6,0,0,1,.39.49,17.8,17.8,0,0,1,.21,2.05.63.63,0,0,1-.59.66Z"/><path class="cls-7" d="M406,441.39a.59.59,0,0,1-.29-.07l-3.18-1.71a.62.62,0,1,1,.59-1.1l3.18,1.71a.61.61,0,0,1,.25.84A.62.62,0,0,1,406,441.39Zm-8-4.23a.71.71,0,0,1-.28-.06c-1.07-.56-2.14-1.1-3.21-1.63a.63.63,0,0,1-.28-.84.62.62,0,0,1,.84-.28c1.07.53,2.15,1.08,3.22,1.63a.62.62,0,0,1-.29,1.18Zm-8.1-4a.57.57,0,0,1-.25-.06c-1.19-.53-2.3-1-3.3-1.39a.62.62,0,0,1,.46-1.16c1,.4,2.14.87,3.35,1.41a.64.64,0,0,1,.31.83A.62.62,0,0,1,389.9,433.21Z"/><path class="cls-7" d="M379.44,430.52a.64.64,0,0,1-.59-.82A4.17,4.17,0,0,0,379,428a.63.63,0,0,1,.55-.69.62.62,0,0,1,.69.55,5.86,5.86,0,0,1,0,1.18,6.5,6.5,0,0,1,1.23,0,.63.63,0,0,1,.55.7.62.62,0,0,1-.69.54,2.6,2.6,0,0,0-1.57.14A.59.59,0,0,1,379.44,430.52Z"/><path class="cls-7" d="M378.41,424.85a.63.63,0,0,1-.57-.35c-.33-.68-.72-1.41-1.21-2.22a.62.62,0,0,1,.21-.86.63.63,0,0,1,.86.21c.51.85.92,1.61,1.27,2.32a.63.63,0,0,1-.29.84A.66.66,0,0,1,378.41,424.85Z"/><path class="cls-7" d="M375.06,419.31a.63.63,0,0,1-.52-.28c-.34-.51-.64-1-.9-1.41H372a.63.63,0,0,1,0-1.25h2a.63.63,0,0,1,.54.31c.28.48.65,1,1.05,1.66a.62.62,0,0,1-.17.86A.66.66,0,0,1,375.06,419.31Z"/><path class="cls-7" d="M368.61,417.62h-2.25a.63.63,0,1,1,0-1.25h2.25a.63.63,0,1,1,0,1.25Z"/><path class="cls-7" d="M363,417.62h-2a.64.64,0,0,1-.59-.4,6.33,6.33,0,0,1-.24-2.22.64.64,0,0,1,.64-.61.62.62,0,0,1,.61.64,8.42,8.42,0,0,0,.06,1.34H363a.63.63,0,1,1,0,1.25Z"/><path class="cls-7" d="M361.08,411.43H361a.63.63,0,0,1-.57-.68c.07-.86.1-1.5.1-2,0-.24,0-.47,0-.67a.63.63,0,0,1,.57-.68.65.65,0,0,1,.68.57c0,.24,0,.5,0,.78,0,.56,0,1.24-.1,2.13A.63.63,0,0,1,361.08,411.43Z"/><path class="cls-7" d="M357.21,410.36h-.11c-.65-.12-1.3-.2-1.93-.26a.62.62,0,0,1-.57-.67.63.63,0,0,1,.67-.57c.55,0,1.11.11,1.66.2.37-.49.73-.93,1-1.3a.63.63,0,0,1,.89-.06.62.62,0,0,1,.06.88c-.36.42-.77.94-1.21,1.53A.64.64,0,0,1,357.21,410.36Z"/><path class="cls-7" d="M339.07,412.35a10.23,10.23,0,0,1-2.77-.37.62.62,0,1,1,.33-1.2,10,10,0,0,0,3.55.27.62.62,0,0,1,.68.56.63.63,0,0,1-.56.68Q339.68,412.35,339.07,412.35Zm6.74-1.26a.62.62,0,0,1-.16-1.23c1.09-.28,2.38-.59,3.78-.81a.63.63,0,1,1,.19,1.24c-1.34.21-2.6.51-3.66.78Z"/><path class="cls-7" d="M331.54,409.2a.62.62,0,0,1-.4-.15c-.41-.35-.82-.74-1.24-1.15a6.67,6.67,0,0,1-1.81.18.62.62,0,0,1-.6-.64.61.61,0,0,1,.62-.61h0a5.34,5.34,0,0,0,1.77-.23.65.65,0,0,1,.63.16c.48.49,1,.94,1.42,1.34a.63.63,0,0,1,.07.88A.64.64,0,0,1,331.54,409.2Z"/><path class="cls-7" d="M324.86,407.36a.59.59,0,0,1-.23,0,16,16,0,0,1-2.09-1,.62.62,0,0,1-.23-.85.61.61,0,0,1,.85-.23,15.29,15.29,0,0,0,1.92.93.62.62,0,0,1,.36.81A.63.63,0,0,1,324.86,407.36Z"/><path class="cls-7" d="M318,405a.67.67,0,0,1-.34-.1.64.64,0,0,1-.19-.87,3.8,3.8,0,0,0,.56-1.62.63.63,0,0,1,1.08-.34,14.7,14.7,0,0,0,1.39,1.32.63.63,0,0,1-.81,1c-.24-.21-.47-.41-.69-.62a4.25,4.25,0,0,1-.48,1A.61.61,0,0,1,318,405Z"/><path class="cls-7" d="M308.16,408.86a.72.72,0,0,1-.29-.06.63.63,0,0,1-.27-.84,11.08,11.08,0,0,0,.71-1.77.7.7,0,0,1,.61-.43l1.15,0,.86,0a.63.63,0,0,1,.61.65.67.67,0,0,1-.65.6l-.87,0-.67,0a11.86,11.86,0,0,1-.64,1.5A.61.61,0,0,1,308.16,408.86Z"/><path class="cls-7" d="M291.86,416.69a.63.63,0,0,1-.62-.55.64.64,0,0,1,.55-.7c1.5-.17,2.65-.33,3.71-.51a.62.62,0,1,1,.21,1.23c-1.09.19-2.25.35-3.77.53Zm9.23-1.91a.64.64,0,0,1-.59-.41.62.62,0,0,1,.37-.8,15.64,15.64,0,0,0,3.22-1.64.62.62,0,0,1,.87.16.63.63,0,0,1-.16.87,16.53,16.53,0,0,1-3.49,1.78A.93.93,0,0,1,301.09,414.78Z"/><path class="cls-7" d="M284.25,417.62a.63.63,0,0,1-.62-.52.62.62,0,0,1,.51-.72c.66-.11,1.32-.21,2-.29a.62.62,0,0,1,.7.54.63.63,0,0,1-.54.7c-.67.08-1.32.18-2,.28Z"/><path class="cls-7" d="M431.17,622.53h-.06a5.66,5.66,0,0,1-2.16-.62.62.62,0,0,1,.61-1.09,4.46,4.46,0,0,0,1.68.47.62.62,0,0,1-.07,1.24Z"/><path class="cls-7" d="M427.94,616.25l-.15,0a.62.62,0,0,1-.45-.76,28,28,0,0,1,1.42-4.08.64.64,0,0,1,.82-.34.62.62,0,0,1,.33.82,26.41,26.41,0,0,0-1.36,3.91A.62.62,0,0,1,427.94,616.25Z"/><path class="cls-7" d="M432,606.48a.69.69,0,0,1-.24-.05.62.62,0,0,1-.33-.82c.23-.56.36-.92.43-1.15l-.53-.09-.87-.16a.62.62,0,0,1,.22-1.23l.86.16,1.1.19a.63.63,0,0,1,.52.5,4.49,4.49,0,0,1-.58,2.27A.64.64,0,0,1,432,606.48Z"/><path class="cls-7" d="M425.79,603.39h-.11l-3.16-.56a.62.62,0,0,1,.21-1.23l3.17.56a.62.62,0,0,1,.51.72A.63.63,0,0,1,425.79,603.39Z"/><path class="cls-7" d="M417.88,602h-.11l-2-.35a.61.61,0,0,1-.44-.32c-.31-.57-.64-1.14-1-1.68a.62.62,0,0,1,.18-.86.63.63,0,0,1,.87.19c.31.48.61,1,.89,1.49l1.68.3a.63.63,0,0,1-.11,1.24Z"/><path class="cls-7" d="M411.17,595.39a.62.62,0,0,1-.44-.18,28.3,28.3,0,0,0-2.93-2.47.63.63,0,0,1,.74-1,29.84,29.84,0,0,1,3.06,2.59.62.62,0,0,1,0,.88A.59.59,0,0,1,411.17,595.39Zm-8-5.58a.67.67,0,0,1-.28-.06c-1.11-.55-2.3-1.08-3.54-1.56a.63.63,0,0,1,.46-1.17c1.27.5,2.5,1,3.64,1.61a.63.63,0,0,1,.28.84A.62.62,0,0,1,403.15,589.81ZM394,586.42l-.16,0c-1.21-.32-2.48-.62-3.79-.89a.63.63,0,0,1-.48-.74.61.61,0,0,1,.74-.48c1.32.27,2.62.57,3.85.9a.62.62,0,0,1,.44.77A.61.61,0,0,1,394,586.42Zm-9.62-1.87h-.09c-1.24-.16-2.54-.31-3.87-.44a.61.61,0,0,1-.56-.68.62.62,0,0,1,.68-.56c1.34.13,2.66.28,3.92.45a.62.62,0,0,1-.08,1.24Zm-9.78-.88h0c-1.31-.07-2.62-.12-3.91-.15a.63.63,0,0,1-.6-.65.61.61,0,0,1,.62-.6h0c1.3,0,2.61.09,3.94.16a.62.62,0,0,1,.59.65A.63.63,0,0,1,374.56,583.67Zm-13.73-.23a.63.63,0,0,1-.62-.63.61.61,0,0,1,.62-.62h3.92a.63.63,0,1,1,0,1.25h-3.92Z"/><path class="cls-7" d="M352.94,583.51a.62.62,0,0,1-.62-.62.63.63,0,0,1,.62-.63h2a.62.62,0,0,1,.63.61.64.64,0,0,1-.62.64h-2Z"/><path class="cls-7" d="M392,122.54a.6.6,0,0,1-.29-.08.63.63,0,0,1-.26-.85l1-1.76a.62.62,0,0,1,1.1.59l-1,1.77A.62.62,0,0,1,392,122.54Z"/><path class="cls-7" d="M393.92,118.9a.66.66,0,0,1-.3-.07.64.64,0,0,1-.25-.85l1.8-3.34a.63.63,0,0,1,.85-.25.61.61,0,0,1,.25.84l-1.8,3.34A.62.62,0,0,1,393.92,118.9Z"/><path class="cls-7" d="M398.42,110.55a.62.62,0,0,1-.54-.92l.73-1.35a2.29,2.29,0,0,1,.18-.31l0-.09h0a1,1,0,0,1,.18-.22h0l1.63-1.16a.63.63,0,0,1,.73,1l-1.52,1.07-.87,1.63A.63.63,0,0,1,398.42,110.55Z"/><path class="cls-7" d="M405.77,104.28a.63.63,0,0,1-.37-1.14l3.18-2.25a.62.62,0,1,1,.72,1l-3.17,2.25A.62.62,0,0,1,405.77,104.28Zm7.93-5.62a.64.64,0,0,1-.51-.27.63.63,0,0,1,.15-.87c.31-.22.55-.39.74-.51a17.15,17.15,0,0,1,1.39-2.39.63.63,0,1,1,1,.71,15.78,15.78,0,0,0-1.34,2.33.67.67,0,0,1-.23.27l-.87.61A.6.6,0,0,1,413.7,98.66Zm5.94-7.6a.67.67,0,0,1-.42-.16.62.62,0,0,1,0-.89c.84-.93,1.76-1.88,2.71-2.83a.63.63,0,0,1,.89,0,.62.62,0,0,1,0,.88c-.94.93-1.84,1.86-2.67,2.78A.6.6,0,0,1,419.64,91.06Zm7-6.75a.6.6,0,0,1-.47-.22.62.62,0,0,1,.07-.88c1-.88,2.08-1.7,3.07-2.44a.63.63,0,0,1,.88.13.61.61,0,0,1-.13.87c-1,.73-2,1.53-3,2.4A.68.68,0,0,1,426.63,84.31Z"/><path class="cls-7" d="M434.58,78.8a.63.63,0,0,1-.56-.35.62.62,0,0,1,.29-.83,12.67,12.67,0,0,1,1.95-.79.63.63,0,0,1,.36,1.2,11.17,11.17,0,0,0-1.76.71A.67.67,0,0,1,434.58,78.8Z"/><path class="cls-7" d="M391.44,123.49a.62.62,0,0,1-.5-1,5.2,5.2,0,0,0,.92-1.51.64.64,0,0,1,.78-.42.63.63,0,0,1,.42.78,6.07,6.07,0,0,1-1.13,1.92A.62.62,0,0,1,391.44,123.49Z"/><path class="cls-7" d="M387.92,118.58a.62.62,0,0,1-.54-.32l-2.07-3.66a.63.63,0,0,1,.24-.85.62.62,0,0,1,.85.24l2.06,3.66a.62.62,0,0,1-.23.85A.71.71,0,0,1,387.92,118.58Zm-5.15-9.14a.6.6,0,0,1-.54-.32l-2.06-3.65a.62.62,0,0,1,1.09-.61l2.06,3.65a.62.62,0,0,1-.24.85A.68.68,0,0,1,382.77,109.44Zm-5.14-9.13a.63.63,0,0,1-.55-.32L375,96.34a.62.62,0,0,1,1.09-.61l2.05,3.65a.62.62,0,0,1-.23.85A.6.6,0,0,1,377.63,100.31Zm-5.14-9.13a.64.64,0,0,1-.55-.31l-2.05-3.66A.62.62,0,0,1,371,86.6l2,3.65a.62.62,0,0,1-.23.85A.6.6,0,0,1,372.49,91.18Zm-5.14-9.13a.63.63,0,0,1-.55-.32l-.69-1.22c-.65-1.15-1-1.81-1.22-2.21a.63.63,0,0,1-.19-.79.62.62,0,0,1,.83-.28.69.69,0,0,1,.31.3h0l1.34,2.37.69,1.23a.62.62,0,0,1-.24.85A.56.56,0,0,1,367.35,82.05Zm-7.72-6.38a.67.67,0,0,1-.3-.08c-1.32-.7-2.54-1.42-3.65-2.11a.63.63,0,0,1,.67-1.06c1.08.68,2.28,1.38,3.57,2.07a.63.63,0,0,1-.29,1.18ZM351,69.8a.59.59,0,0,1-.43-.17,16.78,16.78,0,0,1-2.77-3.31.62.62,0,1,1,1.06-.66,15.63,15.63,0,0,0,2.57,3.07A.62.62,0,0,1,351,69.8Zm-4.49-9.1a.63.63,0,0,1-.62-.57l-.05-.48a11.41,11.41,0,0,0-.66-3.42.62.62,0,0,1,.33-.82.63.63,0,0,1,.82.34,12.71,12.71,0,0,1,.76,3.78l.05.48a.63.63,0,0,1-.56.68Z"/><path class="cls-7" d="M341.33,52.45a.75.75,0,0,1-.29-.06q-.81-.42-1.77-.81a.62.62,0,0,1-.35-.81.63.63,0,0,1,.82-.34c.67.27,1.3.55,1.87.84a.62.62,0,0,1-.28,1.18Z"/><path class="cls-7" d="M453.12,196.7a.66.66,0,0,1-.41-.16.63.63,0,0,1-.06-.88c.42-.47.89-1,1.43-1.48a.62.62,0,0,1,.88,0,.63.63,0,0,1,0,.88c-.52.49-1,1-1.36,1.4A.62.62,0,0,1,453.12,196.7Z"/><path class="cls-7" d="M459.11,191.37a.6.6,0,0,1-.49-.24.63.63,0,0,1,.11-.88c1-.77,2.1-1.58,3.26-2.4a.63.63,0,0,1,.72,1c-1.14.8-2.23,1.6-3.22,2.36A.6.6,0,0,1,459.11,191.37Zm8.25-5.73a.62.62,0,0,1-.33-1.15c1.16-.74,2.32-1.45,3.44-2.11a.62.62,0,0,1,.86.22.63.63,0,0,1-.22.86c-1.11.65-2.26,1.35-3.41,2.08A.61.61,0,0,1,467.36,185.64Zm8-5.74a.67.67,0,0,1-.3-.08.64.64,0,0,1-.25-.85c.59-1.06,1.25-2.25,2-3.52a.62.62,0,1,1,1.08.62c-.72,1.26-1.38,2.44-2,3.5A.62.62,0,0,1,475.33,179.9Zm5-8.71a.62.62,0,0,1-.32-.09.63.63,0,0,1-.21-.86c.69-1.14,1.39-2.3,2.11-3.44a.62.62,0,1,1,1.06.66c-.71,1.14-1.42,2.29-2.1,3.42A.62.62,0,0,1,480.35,171.19Zm5.39-8.49a.66.66,0,0,1-.35-.11.63.63,0,0,1-.17-.87c.84-1.23,1.62-2.35,2.33-3.31a.61.61,0,0,1,.87-.13.62.62,0,0,1,.14.87c-.7.95-1.48,2-2.3,3.27A.63.63,0,0,1,485.74,162.7Zm4.67-8.52h-.05a.62.62,0,0,1-.58-.66,38.42,38.42,0,0,1,.52-4,.62.62,0,1,1,1.23.21,36.91,36.91,0,0,0-.5,3.92A.63.63,0,0,1,490.41,154.18Zm1.9-9.85-.18,0a.61.61,0,0,1-.42-.77c.35-1.22.77-2.52,1.23-3.86a.62.62,0,0,1,.8-.38.62.62,0,0,1,.38.79c-.45,1.32-.86,2.6-1.21,3.8A.63.63,0,0,1,492.31,144.33Zm3.33-9.47a.68.68,0,0,1-.23-.05.63.63,0,0,1-.35-.81c.5-1.25,1-2.49,1.53-3.73a.63.63,0,0,1,1.16.48c-.52,1.23-1,2.47-1.52,3.71A.64.64,0,0,1,495.64,134.86Zm3.89-9.27a.69.69,0,0,1-.24,0,.62.62,0,0,1-.33-.82c.53-1.25,1.06-2.48,1.57-3.7a.62.62,0,0,1,.81-.33.63.63,0,0,1,.34.82l-1.57,3.7A.62.62,0,0,1,499.53,125.59Z"/><path class="cls-7" d="M503.32,116.32a.57.57,0,0,1-.22,0,.63.63,0,0,1-.37-.8c.23-.63.45-1.26.66-1.87a.64.64,0,0,1,.8-.39.63.63,0,0,1,.39.79c-.22.63-.44,1.26-.68,1.9A.62.62,0,0,1,503.32,116.32Z"/><path class="cls-7" d="M695.06,255.4H695l-2-.18a.63.63,0,0,1-.58-.67.65.65,0,0,1,.68-.58l2,.19a.63.63,0,0,1,.55.69A.62.62,0,0,1,695.06,255.4Z"/><path class="cls-7" d="M665.2,266.12a.62.62,0,0,1-.08-1.24,23.64,23.64,0,0,0,4-.82.62.62,0,0,1,.78.41.64.64,0,0,1-.41.79,25.16,25.16,0,0,1-4.21.86Zm-5.46-2.76a.55.55,0,0,1-.31-.08c-1.31-.76-2.54-1.41-3.67-1.93a.62.62,0,0,1-.31-.82.61.61,0,0,1,.83-.31,42.5,42.5,0,0,1,3.78,2,.62.62,0,0,1-.32,1.16Zm14.9-1.26a.6.6,0,0,1-.43-.17.63.63,0,0,1,0-.89,21.67,21.67,0,0,0,1.55-1.82c.37-.46.74-.92,1.14-1.37a.63.63,0,0,1,.88-.05.62.62,0,0,1,0,.88c-.38.43-.73.87-1.09,1.32-.5.63-1,1.28-1.63,1.91A.6.6,0,0,1,674.64,262.1Zm-28.5-.92a.62.62,0,0,1-.46-.19.64.64,0,0,1,0-.89,5.94,5.94,0,0,1,4.22-1.58.65.65,0,0,1,.65.63.61.61,0,0,1-.6.62h-.09a4.65,4.65,0,0,0-3.33,1.25A.61.61,0,0,1,646.14,261.18Zm36.48-5.51a.61.61,0,0,1-.6-.46.63.63,0,0,1,.44-.77,21.12,21.12,0,0,1,4.27-.62.61.61,0,0,1,.66.59.64.64,0,0,1-.59.66,19.38,19.38,0,0,0-4,.58Z"/><path class="cls-7" d="M641.26,262.52a.63.63,0,0,1-.51-.26,16.44,16.44,0,0,1-1.13-1.73.62.62,0,0,1,1-.67q.66.92,1.2,1.53a.62.62,0,0,1-.06.88l-.12.08,0,0A.62.62,0,0,1,641.26,262.52Z"/><path class="cls-7" d="M649.79,270.1a.68.68,0,0,1-.33-.09,33.91,33.91,0,0,1-3.81-2.71.62.62,0,0,1-.09-.88.63.63,0,0,1,.88-.09,31.92,31.92,0,0,0,3.68,2.61.63.63,0,0,1,.2.86A.62.62,0,0,1,649.79,270.1Z"/><path class="cls-7" d="M659.22,274.92a.62.62,0,0,1-.48-.22c-.41-.48-.77-1-1.09-1.42-.56-.09-1.15-.22-1.76-.38a.63.63,0,0,1,.34-1.21,16.15,16.15,0,0,0,1.87.4.61.61,0,0,1,.44.27,15.46,15.46,0,0,0,1.16,1.53.63.63,0,0,1-.48,1Z"/><path class="cls-7" d="M667.68,282.28a.6.6,0,0,1-.36-.12c-1.27-.89-2.49-1.81-3.62-2.73a.63.63,0,1,1,.79-1c1.11.91,2.3,1.81,3.55,2.68a.63.63,0,0,1,.15.87A.64.64,0,0,1,667.68,282.28Z"/><path class="cls-7" d="M675.2,286.72a.57.57,0,0,1-.25-.06q-.87-.39-1.83-.9a.64.64,0,0,1-.26-.85.62.62,0,0,1,.85-.25c.61.32,1.2.61,1.75.86a.61.61,0,0,1,.31.83A.62.62,0,0,1,675.2,286.72Z"/><path class="cls-7" d="M581.2,481.5h-.08a11.35,11.35,0,0,1-2.07-.46.63.63,0,0,1,.4-1.19,9.58,9.58,0,0,0,1.83.41.63.63,0,0,1-.08,1.25Z"/><path class="cls-7" d="M573.83,476.36a.62.62,0,0,1-.54-.32,28.85,28.85,0,0,1-1.62-3.51c-.14-.36-.28-.71-.41-1a.62.62,0,1,1,1.14-.49c.14.32.29.67.43,1a27.32,27.32,0,0,0,1.54,3.36.62.62,0,0,1-.23.85A.59.59,0,0,1,573.83,476.36Z"/><path class="cls-7" d="M565.73,474.48a.58.58,0,0,1-.33-.1.63.63,0,0,1-.19-.87c.41-.63.78-1.19,1.13-1.68a.63.63,0,1,1,1,.73c-.34.47-.7,1-1.1,1.63A.62.62,0,0,1,565.73,474.48Z"/><path class="cls-7" d="M285.35,233.28a.63.63,0,0,1-.6-.81l.58-1.91h0c.12-.31.18-.33.33-.4a.66.66,0,0,1,.67.11.63.63,0,0,1,.18.65l-.22.71-.22.71-.14.49a.62.62,0,0,1-.6.44Z"/><path class="cls-7" d="M412.89,445.17l-.14,0a.64.64,0,0,1-.47-.75l.61.14-.61-.14h0s0,0,0,0h0a.67.67,0,0,1,.75-.5.61.61,0,0,1,.49.69h0v0h0a.87.87,0,0,1,0,.1h0A.63.63,0,0,1,412.89,445.17Z"/><path class="cls-7" d="M374.52,418.56c-.18,0-.3-.09-.47-.31h0l-.22-.36-.14-.22-.22-.35a.64.64,0,0,1,0-.64.62.62,0,0,1,.55-.32.54.54,0,0,1,.52.3h0l.58.94a.6.6,0,0,1,.06.55.69.69,0,0,1-.42.38Z"/><path class="cls-7" d="M595.75,269.66a.68.68,0,0,1-.67-.64c0-.45.37-.61.73-.76a.63.63,0,0,1,.83.32.65.65,0,0,1-.1.66A1,1,0,0,1,595.75,269.66Z"/><path class="cls-7" d="M500.18,333.69a1.09,1.09,0,0,1-.3-.07.62.62,0,0,1-.34-.81l0-.07a.75.75,0,0,1,.66-.49.69.69,0,0,1,.64.68A.7.7,0,0,1,500.18,333.69Z"/><path class="cls-7" d="M412.07,449.06h-.13a.63.63,0,0,1-.5-.62.49.49,0,0,1,0-.12l.05-.21a.62.62,0,1,1,1.22.25l0,.21A.63.63,0,0,1,412.07,449.06Z"/><path class="cls-7" d="M412.92,445.07l-.13,0a.63.63,0,0,1-.49-.74l0-.12a.63.63,0,0,1,1.22.28l0,.1A.64.64,0,0,1,412.92,445.07Zm.63-.59h0Z"/><path class="cls-7" d="M483.84,368.31a.62.62,0,0,1-.6-.48l-.47-1.94a.69.69,0,0,1,.13-.55.62.62,0,0,1,.51-.22,10.58,10.58,0,0,0,1.88-.11.64.64,0,0,1,.71.54.63.63,0,0,1-.54.7q-.68.09-1.29.12l.28,1.17a.63.63,0,0,1-.46.76Z"/><path class="cls-7" d="M479.53,403.75a.65.65,0,0,1-.31-.08.62.62,0,0,1-.24-.85,4.24,4.24,0,0,0,.57-2.19,7.14,7.14,0,0,0-.21-1.63.62.62,0,0,1,1.21-.29,8,8,0,0,1,.25,1.92,5.53,5.53,0,0,1-.73,2.81A.63.63,0,0,1,479.53,403.75Zm-2.11-10.36a.65.65,0,0,1-.57-.36c-.56-1.18-1.2-2.56-1.8-4.06a.62.62,0,1,1,1.16-.46c.58,1.46,1.22,2.82,1.77,4a.62.62,0,0,1-.29.83A.54.54,0,0,1,477.42,393.39Zm.71-10a.63.63,0,0,1-.34-.1.63.63,0,0,1-.19-.86,10.88,10.88,0,0,1,3.15-3.41.61.61,0,0,1,.86.2.62.62,0,0,1-.2.86,9.58,9.58,0,0,0-2.75,3A.62.62,0,0,1,478.13,383.42Zm8.15-4.37a.62.62,0,0,1-.62-.54c-.12-.86-.44-2.32-.89-4.25a.63.63,0,0,1,.46-.75.62.62,0,0,1,.75.47c.46,2,.79,3.45.92,4.36a.62.62,0,0,1-.53.71Z"/><path class="cls-7" d="M474.45,408.76l-.17,0a7.49,7.49,0,0,0-1.83-.25.62.62,0,0,1-.2-1.21c.65-.25,1.26-.5,1.81-.75a.63.63,0,0,1,.66,1.05.61.61,0,0,1,.33.73A.63.63,0,0,1,474.45,408.76Z"/><path class="cls-7" d="M474.94,423.39l-.21,0a.63.63,0,0,1-.37-.81c.37-1,.76-2,1.11-3.08a.63.63,0,0,1,.8-.39.62.62,0,0,1,.39.79c-.36,1.06-.75,2.11-1.13,3.12A.62.62,0,0,1,474.94,423.39Zm2.43-7.86h-.11a.62.62,0,0,1-.51-.72,12.39,12.39,0,0,0,.2-2.05,8.2,8.2,0,0,0-.07-1,.62.62,0,1,1,1.23-.19,8,8,0,0,1,.09,1.22A12.74,12.74,0,0,1,478,415,.61.61,0,0,1,477.37,415.53Z"/><path class="cls-7" d="M473,430a.82.82,0,0,1-.29-.07c-.6-.32-1.19-.62-1.76-.9a.63.63,0,0,1-.29-.84.62.62,0,0,1,.83-.28l1,.49a11.7,11.7,0,0,1,.27-1.16.63.63,0,0,1,.77-.43.61.61,0,0,1,.43.77,7.87,7.87,0,0,0-.33,1.81.64.64,0,0,1-.63.61Z"/><path class="cls-7" d="M435,430.43a.63.63,0,0,1-.62-.6.62.62,0,0,1,.6-.65,36.52,36.52,0,0,0,3.67-.33.64.64,0,0,1,.71.53.63.63,0,0,1-.53.71,36.44,36.44,0,0,1-3.81.34Zm9.22-1.57a.64.64,0,0,1-.6-.44.63.63,0,0,1,.42-.78c1.23-.38,2.37-.78,3.53-1.2a.64.64,0,0,1,.8.38.63.63,0,0,1-.38.8c-1.17.42-2.33.83-3.59,1.21A.57.57,0,0,1,444.18,428.86ZM466,426.92a.64.64,0,0,1-.2,0,29.74,29.74,0,0,0-3.54-1,.62.62,0,0,1,.27-1.22,29.72,29.72,0,0,1,3.68,1.06.62.62,0,0,1,.38.8A.63.63,0,0,1,466,426.92Zm-12.9-1a.61.61,0,0,1-.6-.48.62.62,0,0,1,.46-.76,21.83,21.83,0,0,1,3.81-.57.65.65,0,0,1,.66.59.63.63,0,0,1-.59.66,19.39,19.39,0,0,0-3.59.54Z"/><path class="cls-7" d="M426.15,431.65a.62.62,0,0,1-.38-.13.63.63,0,0,1-.12-.88c.44-.57.82-1.11,1.15-1.59a.63.63,0,0,1,.6-.27c.67.09,1.33.16,2,.22a.63.63,0,0,1,.57.68.65.65,0,0,1-.68.57l-1.63-.18c-.29.41-.61.86-1,1.33A.63.63,0,0,1,426.15,431.65Z"/><path class="cls-7" d="M419.1,439.58a.59.59,0,0,1-.44-.19.62.62,0,0,1,0-.88c1-.94,1.94-2,2.92-3a.63.63,0,0,1,.93.84c-1,1.09-2,2.13-3,3.08A.62.62,0,0,1,419.1,439.58Z"/><path class="cls-7" d="M412.28,446.75h-.09a.63.63,0,0,1-.53-.71c.09-.64.19-1.3.28-2a.63.63,0,0,1,.33-.47,16.32,16.32,0,0,0,1.63-1,.62.62,0,0,1,.72,1,14.8,14.8,0,0,1-1.48.94c-.08.57-.16,1.13-.24,1.67A.64.64,0,0,1,412.28,446.75Z"/><path class="cls-7" d="M412.47,456c-1.12,0-1.69-.92-1.69-2.74,0-.23,0-.48,0-.75a.63.63,0,1,1,1.25.07c0,.24,0,.47,0,.68,0,.68.07,1.49.44,1.49a1.55,1.55,0,0,0,.65-.19.63.63,0,0,1,.83.32.62.62,0,0,1-.31.82A2.85,2.85,0,0,1,412.47,456Z"/><path class="cls-7" d="M418.44,451.74a.62.62,0,0,1-.43-1.07l1.43-1.39a.62.62,0,0,1,.52-.18l2,.27a.63.63,0,0,1,.54.7.64.64,0,0,1-.71.54l-1.66-.24q-.64.64-1.23,1.2A.67.67,0,0,1,418.44,451.74Z"/><path class="cls-7" d="M433.5,452.19h-.09l-4.65-.63a.64.64,0,0,1-.54-.71.63.63,0,0,1,.71-.53l4.65.63a.63.63,0,0,1,.54.7A.62.62,0,0,1,433.5,452.19Z"/><path class="cls-7" d="M442.39,455.41h0a.63.63,0,0,1-.61-.65l.05-1.43-1.42-.2a.62.62,0,1,1,.17-1.23l2,.26a.63.63,0,0,1,.54.64l-.07,2A.62.62,0,0,1,442.39,455.41Z"/><path class="cls-7" d="M484,481.08a.65.65,0,0,1-.41-.15,12.54,12.54,0,0,1-2.77-3.5.61.61,0,0,1,.25-.84.62.62,0,0,1,.85.24,11,11,0,0,0,2.49,3.15.62.62,0,0,1,.06.88A.59.59,0,0,1,484,481.08Zm-4.69-9.35a.62.62,0,0,1-.61-.51,33,33,0,0,1-.53-4.31.62.62,0,0,1,.58-.66.64.64,0,0,1,.67.59,34.66,34.66,0,0,0,.5,4.15.62.62,0,0,1-.49.73Zm-.43-10.62h-.06a.63.63,0,0,1-.56-.68c0-.16,0-.32,0-.48a9.1,9.1,0,0,0-2.29-2,.62.62,0,1,1,.65-1.06,10.44,10.44,0,0,1,2.78,2.49.61.61,0,0,1,.13.45c0,.24-.05.48-.07.72A.62.62,0,0,1,478.85,461.11ZM445,459.83a.63.63,0,0,1-.11-1.24,22.15,22.15,0,0,0,3.55-1.13.57.57,0,0,1,.26,0l.41,0a.64.64,0,0,1,.6.65.6.6,0,0,1-.65.6h-.3a22.58,22.58,0,0,1-3.64,1.14Zm10.45-1.67a.62.62,0,0,1-.62-.52.63.63,0,0,1,.52-.72c1.2-.19,2.43-.41,3.67-.64l.51-.1a.63.63,0,0,1,.73.51.62.62,0,0,1-.5.72l-.52.1c-1.25.23-2.48.45-3.69.65Zm10.52-1.7a.64.64,0,0,1-.63-.56.63.63,0,0,1,.57-.68,27.29,27.29,0,0,1,4.35-.14.63.63,0,0,1,.59.66.62.62,0,0,1-.66.59,26.08,26.08,0,0,0-4.16.13Z"/><path class="cls-7" d="M490.87,485.3a.66.66,0,0,1-.27-.06.63.63,0,0,1-.29-.84c.14-.29.28-.57.43-.85l-1-.06a.63.63,0,0,1-.56-.68.63.63,0,0,1,.68-.57,13.34,13.34,0,0,0,1.91.05.6.6,0,0,1,.57.3.61.61,0,0,1,0,.64c-.32.54-.63,1.12-.91,1.72A.63.63,0,0,1,490.87,485.3Z"/><path class="cls-7" d="M491.19,506.41a.63.63,0,0,1-.51-.26,15.41,15.41,0,0,1-2-4.1.62.62,0,1,1,1.18-.39,14.46,14.46,0,0,0,1.88,3.77.63.63,0,0,1-.15.87A.59.59,0,0,1,491.19,506.41ZM488.3,496h0a.62.62,0,0,1-.61-.63,24.88,24.88,0,0,1,.49-4.5.63.63,0,0,1,.74-.49.64.64,0,0,1,.49.74,23.25,23.25,0,0,0-.47,4.27A.63.63,0,0,1,488.3,496Z"/><path class="cls-7" d="M498,511.47l-.21,0a17.31,17.31,0,0,1-1.92-.82.62.62,0,0,1-.27-.84.62.62,0,0,1,.84-.27c.46.23,1,.44,1.45.63a12.61,12.61,0,0,1,1.49-.93.62.62,0,0,1,.59,1.1,11.48,11.48,0,0,0-1.59,1A.6.6,0,0,1,498,511.47Z"/><path class="cls-7" d="M504.6,508.6a.63.63,0,0,1-.14-1.24,25.66,25.66,0,0,1,3.54-.53.65.65,0,0,1,.67.58.63.63,0,0,1-.58.67,22.78,22.78,0,0,0-3.35.5Z"/><path class="cls-7" d="M515.14,509.07a.57.57,0,0,1-.25-.06,10.93,10.93,0,0,0-1.78-.6.62.62,0,0,1,.29-1.21,11.7,11.7,0,0,1,1.58.49,12.25,12.25,0,0,1,1.33-1,.62.62,0,0,1,.87.15.63.63,0,0,1-.15.87,7.21,7.21,0,0,0-1.39,1.14A.61.61,0,0,1,515.14,509.07Z"/><path class="cls-7" d="M521.38,504.85a.63.63,0,0,1-.31-1.17c1-.6,2.15-1.21,3.26-1.81a.62.62,0,0,1,.59,1.1c-1.1.59-2.19,1.2-3.23,1.79A.56.56,0,0,1,521.38,504.85Zm8.2-4.32a.64.64,0,0,1-.57-.36.63.63,0,0,1,.3-.83c1.45-.69,2.62-1.19,3.47-1.49a.64.64,0,0,1,.8.39.63.63,0,0,1-.39.8,34.14,34.14,0,0,0-3.34,1.43A.66.66,0,0,1,529.58,500.53Zm8.69-3.15a.61.61,0,0,1-.59-.43.62.62,0,0,1,.4-.79l2.65-.84.89-.28a.62.62,0,0,1,.78.41.64.64,0,0,1-.41.79l-.89.28-2.64.83A.63.63,0,0,1,538.27,497.38Zm8.81-2.86a.62.62,0,0,1-.59-.42.64.64,0,0,1,.38-.8c1.26-.44,2.39-.87,3.44-1.3a.63.63,0,0,1,.48,1.16c-1.08.44-2.22.87-3.5,1.32A.52.52,0,0,1,547.08,494.52Zm8.49-3.69a.62.62,0,0,1-.3-1.17,29.92,29.92,0,0,0,3.06-1.94.63.63,0,0,1,.74,1,33.75,33.75,0,0,1-3.19,2A.68.68,0,0,1,555.57,490.83Zm7.14-5.8a.6.6,0,0,1-.38-.13.62.62,0,0,1-.11-.87,14.35,14.35,0,0,0,1.81-3,.62.62,0,0,1,1.14.5,15.69,15.69,0,0,1-2,3.3A.63.63,0,0,1,562.71,485Z"/><path class="cls-7" d="M565.78,476.48h0a.63.63,0,0,1-.6-.65,18,18,0,0,0,0-1.93.67.67,0,0,1,.16-.47,11.36,11.36,0,0,0,1.18-1.49.62.62,0,0,1,.86-.18.63.63,0,0,1,.18.87,14.26,14.26,0,0,1-1.11,1.45c0,.61,0,1.21,0,1.79A.63.63,0,0,1,565.78,476.48Z"/><path class="cls-7" d="M568.73,467a.63.63,0,0,1-.62-.57,5.39,5.39,0,0,0-.46-1.74.61.61,0,0,1,0-.48c.27-.75.53-1.43.78-2.05a.62.62,0,0,1,1.16.46c-.22.54-.44,1.14-.68,1.79a7.15,7.15,0,0,1,.47,1.9.62.62,0,0,1-.57.68Zm6-8.67a4.52,4.52,0,0,1-1.52-.32,2.31,2.31,0,0,0-.7-.19h-.11a.63.63,0,0,1-.23-1.23l.33,0a3.23,3.23,0,0,1,1.14.26,2.53,2.53,0,0,0,2.36-.14.62.62,0,0,1,.86.22.64.64,0,0,1-.23.86A3.73,3.73,0,0,1,574.71,458.31Zm5.87-5a.61.61,0,0,1-.36-.11.62.62,0,0,1-.14-.87c.7-1,1.47-2.17,2.27-3.48a.63.63,0,0,1,.86-.21.64.64,0,0,1,.21.86c-.82,1.33-1.6,2.53-2.33,3.55A.62.62,0,0,1,580.58,453.28Zm4.69-9.07a.62.62,0,0,1-.59-.42,19.9,19.9,0,0,0-1.49-3.06l-.33-.6a.61.61,0,0,1,.25-.85.61.61,0,0,1,.84.25l.33.59a22.18,22.18,0,0,1,1.59,3.26.64.64,0,0,1-.39.8Z"/><path class="cls-7" d="M586.57,436.4h-.11a15.12,15.12,0,0,0-1.9-.25.63.63,0,0,1-.6-.65.62.62,0,0,1,.66-.6l.59.05-.31-.47a.63.63,0,0,1,.19-.87.65.65,0,0,1,.87.19c.33.53.7,1.06,1.11,1.6a.62.62,0,0,1,0,.71A.6.6,0,0,1,586.57,436.4Z"/><path class="cls-7" d="M583.12,429.12a.63.63,0,0,1-.62-.52,10.18,10.18,0,0,1-.12-1.54,8.4,8.4,0,0,1,.47-2.8.63.63,0,0,1,.8-.37.62.62,0,0,1,.38.8,6.82,6.82,0,0,0-.4,2.37,7.65,7.65,0,0,0,.11,1.34.64.64,0,0,1-.52.72Zm4.4-8.38a.64.64,0,0,1-.56-.34.63.63,0,0,1,.27-.85,14.47,14.47,0,0,1,4-1.3.62.62,0,0,1,.72.5.63.63,0,0,1-.51.73,13,13,0,0,0-3.69,1.19A.72.72,0,0,1,587.52,420.74Z"/><path class="cls-7" d="M599.48,419.75h-.13c-.65-.14-1.3-.25-1.93-.33a.63.63,0,1,1,.16-1.24q.58.07,1.17.18a5.28,5.28,0,0,0-.25-1,.63.63,0,0,1,.39-.8.62.62,0,0,1,.79.38,8.39,8.39,0,0,1,.42,2.12.67.67,0,0,1-.21.52A.63.63,0,0,1,599.48,419.75Z"/><path class="cls-7" d="M593.56,413.09a.61.61,0,0,1-.34-.1,9.06,9.06,0,0,1-3.51-3.89.62.62,0,1,1,1.12-.54,8,8,0,0,0,3.06,3.38.62.62,0,0,1,.2.86A.63.63,0,0,1,593.56,413.09Z"/><path class="cls-7" d="M589,402.15h0a.62.62,0,0,1-.62-.62q0-1,.06-2a.63.63,0,0,1,.66-.59,10,10,0,0,0,1.9,0,.62.62,0,0,1,.68.56.63.63,0,0,1-.55.69,12,12,0,0,1-1.47.06q0,.7,0,1.35A.63.63,0,0,1,589,402.15Z"/><path class="cls-7" d="M596.73,397.31a.66.66,0,0,1-.44-.17.63.63,0,0,1,0-.89,15.84,15.84,0,0,0,2.4-3.37.63.63,0,1,1,1.09.62,17.25,17.25,0,0,1-2.6,3.62A.59.59,0,0,1,596.73,397.31Z"/><path class="cls-7" d="M602.05,388a.66.66,0,0,1-.27-.06.62.62,0,0,1-.3-.83c.21-.45.42-.89.64-1.32-.23-.13-.6-.32-1.18-.6a.63.63,0,0,1-.28-.84.62.62,0,0,1,.84-.28c1.94,1,2.19,1.09,2.06,1.65a.55.55,0,0,1-.12.24c-.29.55-.56,1.11-.83,1.68A.61.61,0,0,1,602.05,388Z"/><path class="cls-7" d="M595.28,382.38a.66.66,0,0,1-.27-.06l-4-1.86a.63.63,0,0,1,.53-1.14l4,1.87a.62.62,0,0,1-.27,1.19Z"/><path class="cls-7" d="M582.11,378.31a.67.67,0,0,1-.47-.2.63.63,0,0,1,.05-.89c.43-.39.89-.85,1.37-1.37a.63.63,0,0,1,.72-.15l1.82.84a.63.63,0,0,1-.53,1.14l-1.4-.65c-.4.41-.78.79-1.14,1.12A.61.61,0,0,1,582.11,378.31Z"/><path class="cls-7" d="M576.28,380a.55.55,0,0,1-.32-.1,9.91,9.91,0,0,1-3-3.53.64.64,0,0,1,.23-.86.62.62,0,0,1,.85.23,9,9,0,0,0,2.54,3.1.62.62,0,0,1,.21.86A.63.63,0,0,1,576.28,380Z"/><path class="cls-7" d="M570.36,370.92a.63.63,0,0,1-.52-.28c-.32-.49-.62-.92-.93-1.31a13.13,13.13,0,0,1-1.77,0,.62.62,0,0,1-.57-.67.64.64,0,0,1,.66-.58,10.88,10.88,0,0,0,1.9,0,.62.62,0,0,1,.54.22,17.93,17.93,0,0,1,1.22,1.68.63.63,0,0,1-.19.86A.59.59,0,0,1,570.36,370.92Z"/><path class="cls-7" d="M562.32,368.33l-.18,0c-1-.3-2.06-.68-3.17-1.12a.62.62,0,0,1,.46-1.16c1.08.43,2.11.79,3.08,1.09a.62.62,0,0,1-.19,1.22Zm-7.66-3.12a.55.55,0,0,1-.28-.07c-1-.49-2-1-3-1.52a.62.62,0,1,1,.59-1.1c1,.5,1.93,1,2.93,1.5a.63.63,0,0,1-.27,1.19Z"/><path class="cls-7" d="M544,361.44a.65.65,0,0,1-.51-.25.64.64,0,0,1,.14-.88l1.61-1.19a.62.62,0,0,1,.69,0l1.71,1a.64.64,0,0,1,.23.86.62.62,0,0,1-.86.22l-1.37-.81-1.27.95A.63.63,0,0,1,544,361.44Z"/><path class="cls-7" d="M540.68,363.92a.63.63,0,0,1-.27-.06l-.26-.12c-.5-.25-1-.5-1.55-.78a.62.62,0,0,1-.27-.84.63.63,0,0,1,.85-.27c.48.26,1,.5,1.43.72l1.31-1a.63.63,0,0,1,.74,1l-1.61,1.19A.63.63,0,0,1,540.68,363.92Z"/><path class="cls-7" d="M534.88,357.89h-.14a.64.64,0,0,1-.48-.75,5.13,5.13,0,0,1,.66-1.58,5.11,5.11,0,0,0-1.06-.75.62.62,0,0,1-.27-.84.63.63,0,0,1,.85-.27,6.63,6.63,0,0,1,1.74,1.35.62.62,0,0,1,.05.78,4.37,4.37,0,0,0-.74,1.58A.64.64,0,0,1,534.88,357.89Z"/><path class="cls-7" d="M507,366.75a.62.62,0,0,1-.51-.26.62.62,0,0,1,.14-.87l.61-.45,2.71-2a.61.61,0,0,1,.87.14.62.62,0,0,1-.14.87l-2.7,2-.62.45A.62.62,0,0,1,507,366.75Zm8.36-5.92a.62.62,0,0,1-.35-1.14c1.22-.81,2.4-1.55,3.49-2.21a.62.62,0,0,1,.86.22.61.61,0,0,1-.22.85c-1.07.65-2.23,1.38-3.44,2.18A.59.59,0,0,1,515.36,360.83Zm8.91-5a.62.62,0,0,1-.57-.38.63.63,0,0,1,.32-.82,24.31,24.31,0,0,1,4-1.35.63.63,0,1,1,.28,1.22,21.74,21.74,0,0,0-3.76,1.28A.74.74,0,0,1,524.27,355.8Z"/><path class="cls-7" d="M500.24,371.27a.59.59,0,0,1-.41-.16.61.61,0,0,1-.18-.66c.22-.68.41-1.3.56-1.88a.62.62,0,0,1,.76-.45.64.64,0,0,1,.45.76c0,.15-.09.31-.13.47l.35-.22a.62.62,0,0,1,.67,1.05,16.59,16.59,0,0,1-1.8,1A.66.66,0,0,1,500.24,371.27Z"/><path class="cls-7" d="M490.25,365.05a.62.62,0,0,1-.6-.43.64.64,0,0,1,.41-.79c.56-.17,1.13-.36,1.68-.54l1.5-.48a.63.63,0,0,1,.79.41.62.62,0,0,1-.41.78l-1.49.48-1.7.55A.55.55,0,0,1,490.25,365.05Zm10.81-.64a.64.64,0,0,1-.58-.39c-.2-.5-.61-1.07-2-1.07h-.13l0-1.25h.16a3.06,3.06,0,0,1,3.18,1.85.62.62,0,0,1-.34.81A.69.69,0,0,1,501.06,364.41Z"/><path class="cls-7" d="M412.52,446.88h-.13a.63.63,0,0,1-.48-.74l.07-.34a.63.63,0,0,1,1.23.25l-.08.35A.62.62,0,0,1,412.52,446.88Z"/><path class="cls-7" d="M413,445a.74.74,0,0,1-.31-.07h0l-.37-.19a.59.59,0,0,1-.34-.53.61.61,0,0,1,.3-.56.57.57,0,0,1,.6,0h0l.09.05.14.07.14.07a.65.65,0,0,1,.34.46.63.63,0,0,1-.18.54A.58.58,0,0,1,413,445Zm-.08-.29h0Z"/><path class="cls-7" d="M412.67,446.19h-.13a.64.64,0,0,1-.48-.75l.22-1a.63.63,0,0,1,.74-.48.62.62,0,0,1,.48.74h0l-.22,1A.62.62,0,0,1,412.67,446.19Z"/><path class="cls-7" d="M421.86,328.5a.63.63,0,0,1-.34-.1.62.62,0,0,1-.18-.86l1.07-1.69a.62.62,0,0,1,.86-.19.63.63,0,0,1,.2.86l-1.08,1.7A.63.63,0,0,1,421.86,328.5Z"/><path class="cls-7" d="M425.31,323a.56.56,0,0,1-.33-.1.62.62,0,0,1-.2-.86c1-1.54,1.36-1.94,1.86-1.94.19,0,.79.07.79,1.08,0,.11,0,.24,0,.39a.65.65,0,0,1-.67.57.63.63,0,0,1-.41-.19c-.13.19-.29.44-.49.76A.62.62,0,0,1,425.31,323Zm1.55-1.71Zm-.69-.26Z"/><path class="cls-7" d="M427.17,329.6a.61.61,0,0,1-.34-.1c-.53-.35-1.09-.71-1.68-1.11a.62.62,0,0,1-.26-.66c.17-.7.32-1.35.45-1.94a.64.64,0,0,1,.75-.48.63.63,0,0,1,.47.75c-.11.48-.22,1-.35,1.54l1.3.85a.64.64,0,0,1,.19.87A.63.63,0,0,1,427.17,329.6Z"/><path class="cls-7" d="M436.35,334.34a.39.39,0,0,1-.15,0,18.4,18.4,0,0,1-4-1.61.63.63,0,0,1,.58-1.11,17.49,17.49,0,0,0,3.69,1.51.62.62,0,0,1-.15,1.23Zm5.32-2.21a.61.61,0,0,1-.42-.16.64.64,0,0,1,0-.89,9.58,9.58,0,0,1,3.53-2.58.62.62,0,1,1,.48,1.15,8.21,8.21,0,0,0-3.08,2.28A.67.67,0,0,1,441.67,332.13Z"/><path class="cls-7" d="M453.23,331.14a.63.63,0,0,1-.61-.48,6.28,6.28,0,0,1-.16-1.58c-.48-.06-.93-.1-1.37-.13a.62.62,0,0,1-.58-.66.6.6,0,0,1,.66-.58c.65,0,1.33.1,2,.2a.62.62,0,0,1,.55.68,5.27,5.27,0,0,0,.09,1.79.63.63,0,0,1-.47.75Z"/><path class="cls-7" d="M462.42,336.66h-.1a25.39,25.39,0,0,1-4.51-1.11.63.63,0,1,1,.42-1.18,24.16,24.16,0,0,0,4.3,1.05.62.62,0,0,1,.51.72A.63.63,0,0,1,462.42,336.66Z"/><path class="cls-7" d="M471.15,337.87a.74.74,0,0,1-.36-.07c-.45-.1-1-.19-1.7-.29a.62.62,0,0,1-.53-.7.63.63,0,0,1,.7-.54c.48.07.9.13,1.26.2v-1.23a.63.63,0,0,1,.62-.63h0a.63.63,0,0,1,.62.63v2.08A.63.63,0,0,1,471.15,337.87Z"/><path class="cls-7" d="M471.15,334.09a.63.63,0,0,1-.63-.62v-2a.62.62,0,0,1,.54-.62.62.62,0,0,1,.69.45,6.32,6.32,0,0,0,.71,1.67.62.62,0,0,1-.82.88.62.62,0,0,1-.49.24Z"/><path class="cls-7" d="M477.85,336.71a9.1,9.1,0,0,1-.91,0,.62.62,0,0,1-.58-.66.63.63,0,0,1,.67-.58,15.43,15.43,0,0,0,3.82-.27.64.64,0,0,1,.73.51.62.62,0,0,1-.51.72A18.53,18.53,0,0,1,477.85,336.71Zm8.89-1.87a.63.63,0,0,1-.59-.43.62.62,0,0,1,.39-.79c1.31-.44,2.62-.93,3.74-1.35a.63.63,0,0,1,.44,1.17c-1.13.42-2.46.92-3.78,1.36A.48.48,0,0,1,486.74,334.84Z"/><path class="cls-7" d="M496.13,331.44a.63.63,0,0,1-.59-.44.61.61,0,0,1,.41-.78c.39-.13.74-.23,1.07-.31-.21-.32-.4-.64-.58-1a.62.62,0,0,1,.24-.85.63.63,0,0,1,.85.25,17.57,17.57,0,0,0,1,1.62.61.61,0,0,1-.41,1,14.37,14.37,0,0,0-1.84.46Z"/><path class="cls-7" d="M495.49,324.41a.62.62,0,0,1-.62-.59q0-.37,0-.75a12.74,12.74,0,0,1,.33-2.82.62.62,0,0,1,1.22.27,11.57,11.57,0,0,0-.3,2.55c0,.22,0,.44,0,.67a.63.63,0,0,1-.59.67Zm2-8.23a.56.56,0,0,1-.25-.05.62.62,0,0,1-.32-.82l.07-.16a30.67,30.67,0,0,0,1.17-3,.62.62,0,0,1,.79-.4.61.61,0,0,1,.4.78,32.74,32.74,0,0,1-1.22,3.08l-.06.16A.65.65,0,0,1,497.5,316.18Zm1.24-8.17a.63.63,0,0,1-.57-.36,7,7,0,0,0-2-2.39.63.63,0,0,1,.79-1,8.24,8.24,0,0,1,2.33,2.83.62.62,0,0,1-.29.83A.66.66,0,0,1,498.74,308Z"/><path class="cls-7" d="M492.16,302.77a.63.63,0,0,1-.26,0c-.56-.26-1.16-.53-1.81-.79a.62.62,0,0,1-.36-.75,7,7,0,0,1,1-1.95.62.62,0,0,1,.87-.17.63.63,0,0,1,.17.87,7,7,0,0,0-.62,1.08l1.3.57a.62.62,0,0,1,.3.83A.61.61,0,0,1,492.16,302.77Z"/><path class="cls-7" d="M494.75,296.05a.63.63,0,0,1-.42-.17.61.61,0,0,1,0-.88l.81-.87c.56-.59,1.12-1.18,1.67-1.78a.63.63,0,0,1,.92.85c-.55.6-1.12,1.2-1.68,1.79l-.81.86A.63.63,0,0,1,494.75,296.05Zm5.92-6.88a.66.66,0,0,1-.33-.09.63.63,0,0,1-.2-.87,5.48,5.48,0,0,0,1.06-2.73,1.93,1.93,0,0,0,0-.24.62.62,0,1,1,1.24-.14c0,.12,0,.25,0,.38a6.54,6.54,0,0,1-1.25,3.4A.62.62,0,0,1,500.67,289.17Zm-3-6.27h-.12a15.4,15.4,0,0,0-1.54-.22.67.67,0,0,1-.36-.17c-.55-.5-1-1-1.47-1.43a.62.62,0,0,1,0-.88.64.64,0,0,1,.89,0c.38.4.8.81,1.27,1.25.51.05,1,.13,1.44.21a.63.63,0,0,1-.12,1.24Zm-6.15-6.06a.63.63,0,0,1-.6-.42,4.88,4.88,0,0,1-.27-1.56,5.3,5.3,0,0,1,.67-2.42.61.61,0,0,1,.83-.28.62.62,0,0,1,.29.83,4.11,4.11,0,0,0-.54,1.87,3.56,3.56,0,0,0,.21,1.16.63.63,0,0,1-.39.79Zm.38-8.58a.64.64,0,0,1-.53-.29,15.79,15.79,0,0,0-2.29-2.61.62.62,0,0,1,0-.88.63.63,0,0,1,.88,0,16.27,16.27,0,0,1,2.48,2.84.63.63,0,0,1-.18.87A.7.7,0,0,1,491.86,268.26Z"/><path class="cls-7" d="M485.24,262a.63.63,0,0,1-.37-.12c-.5-.38-1-.77-1.61-1.18a.62.62,0,0,1-.25-.47.63.63,0,0,1,.2-.5c.45-.42.93-.87,1.41-1.37a.63.63,0,1,1,.89.88c-.3.31-.6.61-.9.89l1,.75a.62.62,0,0,1,.12.87A.6.6,0,0,1,485.24,262Z"/><path class="cls-7" d="M489.47,254.05a.64.64,0,0,1-.35-.1.64.64,0,0,1-.17-.87,26.59,26.59,0,0,0,2.22-4,.62.62,0,0,1,.82-.32.63.63,0,0,1,.32.83,28.19,28.19,0,0,1-2.32,4.15A.62.62,0,0,1,489.47,254.05Z"/><path class="cls-7" d="M493.16,243.22a.62.62,0,0,1-.62-.58,9.85,9.85,0,0,0-.18-1.23,11,11,0,0,1-1.43.26.62.62,0,0,1-.14-1.24,9.91,9.91,0,0,0,1.83-.39.62.62,0,0,1,.79.42,9.63,9.63,0,0,1,.37,2.09.61.61,0,0,1-.58.67Z"/><path class="cls-7" d="M486.12,241.29H486a21.83,21.83,0,0,1-3.11-1,.63.63,0,1,1,.48-1.16,19.65,19.65,0,0,0,2.92,1,.63.63,0,0,1,.46.76A.62.62,0,0,1,486.12,241.29Zm-7.26-3.22a.68.68,0,0,1-.33-.09c-.89-.56-1.79-1.18-2.66-1.84a.63.63,0,1,1,.75-1c.84.64,1.71,1.24,2.58,1.78a.63.63,0,0,1,.2.86A.64.64,0,0,1,478.86,238.07Z"/><path class="cls-7" d="M472.61,233.15a.62.62,0,0,1-.44-.18c-.5-.49-1-1-1.41-1.47a.61.61,0,0,1-.12-.62c.21-.62.42-1.25.62-1.88a.64.64,0,0,1,.79-.41.62.62,0,0,1,.4.79l-.51,1.56c.34.37.71.76,1.11,1.14a.62.62,0,0,1-.44,1.07Z"/><path class="cls-7" d="M473.68,223.47h-.15a.63.63,0,0,1-.45-.76c.36-1.47.68-2.9.94-4.26a.63.63,0,1,1,1.23.23c-.26,1.39-.59,2.84-1,4.33A.62.62,0,0,1,473.68,223.47Zm1.83-10.83h-.05a.62.62,0,0,1-.58-.66c.06-.86.09-1.71.09-2.52,0-.61,0-1.21-.05-1.8a.63.63,0,0,1,1.25-.07c0,.61.05,1.23.05,1.87,0,.84,0,1.71-.09,2.6A.62.62,0,0,1,475.51,212.64Zm-1.32-10.81a.64.64,0,0,1-.58-.38,10.52,10.52,0,0,0-2.27-3.44.63.63,0,1,1,.88-.89,11.7,11.7,0,0,1,2.54,3.84.62.62,0,0,1-.33.82A.69.69,0,0,1,474.19,201.83ZM466,195.31h-.11a17.92,17.92,0,0,0-4.23-.22.64.64,0,0,1-.66-.59.63.63,0,0,1,.59-.66,19.36,19.36,0,0,1,4.53.24.63.63,0,0,1-.12,1.24Z"/><path class="cls-7" d="M454.9,197.63a.68.68,0,0,1-.31-.08c-.54-.3-1.12-.6-1.75-.92a.62.62,0,0,1-.34-.61.64.64,0,0,1,.44-.55q1-.3,1.95-.54a.63.63,0,0,1,.77.45.64.64,0,0,1-.45.76l-.4.1.39.22a.62.62,0,0,1-.3,1.17Z"/><path class="cls-7" d="M434.63,259.59a.63.63,0,0,1-.45-1.06c.95-1,1.79-1.9,2.58-2.81a.62.62,0,0,1,.94.82c-.8.93-1.65,1.86-2.62,2.86A.6.6,0,0,1,434.63,259.59Zm6.1-7.41a.63.63,0,0,1-.34-.1.63.63,0,0,1-.18-.87,29.06,29.06,0,0,0,1.88-3.25.62.62,0,0,1,.83-.29.61.61,0,0,1,.29.83,29.12,29.12,0,0,1-1.95,3.4A.63.63,0,0,1,440.73,252.18Zm3.7-8.78h-.1a.62.62,0,0,1-.52-.71,14.79,14.79,0,0,0,.16-2.08,11.87,11.87,0,0,0-.1-1.58.62.62,0,1,1,1.24-.15,14.22,14.22,0,0,1,.11,1.73,14.66,14.66,0,0,1-.18,2.27A.61.61,0,0,1,444.43,243.4Zm-3-8.31a.62.62,0,0,1-.5-.25,5.24,5.24,0,0,1-1.08-3.24,5.93,5.93,0,0,1,.06-.84.62.62,0,0,1,.7-.54.63.63,0,0,1,.54.7,5.19,5.19,0,0,0-.05.68,4,4,0,0,0,.83,2.49.63.63,0,0,1-.12.88A.66.66,0,0,1,441.44,235.09Zm1.5-8.8a.63.63,0,0,1-.51-1,31.61,31.61,0,0,1,2.53-3,.62.62,0,0,1,.88,0,.63.63,0,0,1,0,.88,30.3,30.3,0,0,0-2.43,2.88A.61.61,0,0,1,442.94,226.29Zm6.68-6.89a.61.61,0,0,1-.48-.22.63.63,0,0,1,.07-.88q1.44-1.22,3-2.43a.63.63,0,0,1,.76,1c-1,.79-2,1.59-3,2.38A.62.62,0,0,1,449.62,219.4Zm7.6-5.83a.52.52,0,0,1-.27-.07.62.62,0,0,1-.29-.83l.4-.83c.46-.94.88-1.81,1.26-2.62a.62.62,0,1,1,1.13.52c-.38.82-.81,1.7-1.27,2.65l-.4.82A.62.62,0,0,1,457.22,213.57Zm3.42-8.92h0A.62.62,0,0,1,460,204c0-.1,0-.19,0-.29a4.34,4.34,0,0,0-1-2.85.63.63,0,0,1,1-.78,5.62,5.62,0,0,1,1.32,3.63c0,.12,0,.24,0,.36A.63.63,0,0,1,460.64,204.65Z"/><path class="cls-7" d="M429.44,267a.63.63,0,0,1-.61-.5l-.11-.58c-.15-.77-.26-1.31-.27-1.38a.59.59,0,0,1,0-.14.57.57,0,0,1,.2-.44l1.45-1.37a.62.62,0,0,1,.88,0,.63.63,0,0,1,0,.89l-1.21,1.13c0,.24.12.57.21,1l.12.58a.64.64,0,0,1-.5.73Z"/><path class="cls-7" d="M428.83,273.63a.63.63,0,0,1-.32-1.17l1.34-.8-.3-1.53a.62.62,0,1,1,1.22-.24l.39,2a.64.64,0,0,1-.29.66l-1.72,1A.62.62,0,0,1,428.83,273.63Z"/><path class="cls-7" d="M427,274.74a.63.63,0,0,1-.33-1.16l1.72-1a.63.63,0,1,1,.64,1.08l-1.71,1A.62.62,0,0,1,427,274.74Z"/><path class="cls-7" d="M375.63,420.25a.62.62,0,0,1-.53-.29l-1.06-1.7a.65.65,0,0,1-.05-.56.61.61,0,0,1,.41-.37c.29-.09.4-.12.69.28h0l.52.83c.05.08.11.16.16.25l.38.61,0,.06a.62.62,0,0,1-.56.9Z"/><path class="cls-7" d="M379.45,426.35a.64.64,0,0,1-.54-.29l-1.06-1.7a.08.08,0,0,1,0-.05.62.62,0,0,1,1.08-.61l1.06,1.7a.62.62,0,0,1-.19.86A.68.68,0,0,1,379.45,426.35Z"/><path class="cls-7" d="M480.39,380.35a.61.61,0,0,1-.31-.09.62.62,0,0,1-.23-.85l1-1.73a.59.59,0,0,1,.46-.31.64.64,0,0,1,.52.18c.23.23.29.32.08.74h0l-.31.53-.2.35-.49.85a.47.47,0,0,1-.11.13A.6.6,0,0,1,480.39,380.35Z"/><path class="cls-7" d="M477.23,385.81a.61.61,0,0,1-.31-.09.62.62,0,0,1-.23-.85h0l1-1.73a.64.64,0,0,1,.86-.23.62.62,0,0,1,.23.85l-1,1.74A.61.61,0,0,1,477.23,385.81Z"/><path class="cls-7" d="M475.45,388.89h0a.62.62,0,0,1-.54-.31c-.11-.18-.15-.25,0-.61l0,0,.69-1.2.19-.31.9-1.57a.63.63,0,0,1,.54-.31h0a.62.62,0,0,1,.54.31c.11.18.15.25,0,.61l0,0-.69,1.19c-.06.11-.12.22-.19.33l-.9,1.56A.63.63,0,0,1,475.45,388.89Z"/><path class="cls-7" d="M477.52,376.43a.62.62,0,0,1-.61-.55c-.06-.45-.12-.91-.2-1.4l-1.47.06a.65.65,0,0,1-.63-.62.62.62,0,0,1,.61-.63c.65,0,1.3,0,2-.09a.64.64,0,0,1,.67.52c.12.71.22,1.38.3,2a.63.63,0,0,1-.55.7Z"/><path class="cls-7" d="M459.54,378.48h-.12a.64.64,0,0,1-.5-.74,5.62,5.62,0,0,1,1.89-3.43.61.61,0,0,1,.87.09.62.62,0,0,1-.09.88,4.44,4.44,0,0,0-1.44,2.71A.63.63,0,0,1,459.54,378.48Zm10.33-4.14h0c-1.26-.08-2.44-.16-3.53-.17a.62.62,0,0,1-.62-.62.65.65,0,0,1,.63-.63c1.12,0,2.33.09,3.6.17a.63.63,0,0,1,.59.66A.64.64,0,0,1,469.87,374.34Z"/><path class="cls-7" d="M459.82,385.81a.64.64,0,0,1-.62-.52c-.12-.71-.22-1.38-.29-2a.62.62,0,0,1,1.24-.15c.05.44.12.91.19,1.39.5,0,1,0,1.47,0h0a.63.63,0,0,1,0,1.25c-.64,0-1.3,0-2,.09Z"/><path class="cls-7" d="M470.75,386.08h0c-1.13,0-2.33-.08-3.61-.16a.63.63,0,0,1-.58-.67.61.61,0,0,1,.66-.58c1.26.08,2.45.16,3.53.16a.61.61,0,0,1,.62.63A.62.62,0,0,1,470.75,386.08Zm5.1-1.23a.6.6,0,0,1-.48-.24.61.61,0,0,1,.09-.87A4.47,4.47,0,0,0,476.9,381a.63.63,0,0,1,.74-.49.61.61,0,0,1,.49.73,5.63,5.63,0,0,1-1.88,3.43A.62.62,0,0,1,475.85,384.85Z"/><path class="cls-8" d="M477.23,385.18Z"/><path class="cls-7" d="M499.27,335.48a.63.63,0,0,1-.26-.05.64.64,0,0,1-.31-.83l.67-1.44a18.37,18.37,0,0,1-1.85-2.52.62.62,0,0,1,1.09-.61,13.66,13.66,0,0,0,1.93,2.56l0,0a.61.61,0,0,1,.15.66.36.36,0,0,1-.08.15c-.28.59-.54,1.15-.79,1.7A.61.61,0,0,1,499.27,335.48Z"/><path class="cls-7" d="M500.86,354.38a.61.61,0,0,1-.45-.19,10.82,10.82,0,0,0-1.73-1.33,14.07,14.07,0,0,1-1.7-1.26.63.63,0,0,1,.84-.93,13,13,0,0,0,1.55,1.15,11.45,11.45,0,0,1,1.94,1.5.63.63,0,0,1,0,.88A.64.64,0,0,1,500.86,354.38Zm-5.06-8.63h-.09a.62.62,0,0,1-.53-.7,26.32,26.32,0,0,1,1.07-4.33.63.63,0,0,1,1.19.4,24.62,24.62,0,0,0-1,4.1A.63.63,0,0,1,495.8,345.75Z"/><path class="cls-7" d="M501.45,362.49a.57.57,0,0,1-.18,0,.63.63,0,0,1-.42-.78c.2-.67.37-1.3.49-1.88a.62.62,0,1,1,1.22.25c-.12.62-.3,1.29-.51,2A.63.63,0,0,1,501.45,362.49Z"/><path class="cls-7" d="M656.59,304.49a.57.57,0,0,1-.18,0l-1.92-.58a.62.62,0,1,1,.37-1.19l1.91.58a.63.63,0,0,1,.42.78A.62.62,0,0,1,656.59,304.49Z"/><path class="cls-7" d="M650.88,302.76l-.18,0-2.53-.76a.63.63,0,0,1,.36-1.2l2.53.77a.63.63,0,0,1,.42.78A.62.62,0,0,1,650.88,302.76Z"/><path class="cls-7" d="M644.55,300.84l-.18,0-1.91-.58a.61.61,0,0,1-.42-.43c-.2-.7-.37-1.36-.5-2a.61.61,0,0,1,.47-.74.63.63,0,0,1,.75.47c.11.5.24,1,.39,1.58l1.58.48a.63.63,0,0,1,.42.78A.62.62,0,0,1,644.55,300.84Z"/><path class="cls-7" d="M641.82,294.11h-.09a.62.62,0,0,1-.53-.71,5.16,5.16,0,0,1,1.34-2.85.63.63,0,0,1,.92.85,3.89,3.89,0,0,0-1,2.19A.63.63,0,0,1,641.82,294.11Z"/><path class="cls-7" d="M646.66,289.53a.63.63,0,0,1-.6-.43.64.64,0,0,1,.4-.79c.44-.14.9-.27,1.41-.4-.09-.45-.18-.9-.28-1.36a.62.62,0,0,1,.47-.74.64.64,0,0,1,.75.47c.14.67.28,1.34.4,2a.63.63,0,0,1-.48.72c-.7.16-1.32.33-1.88.51A.63.63,0,0,1,646.66,289.53Z"/><path class="cls-7" d="M646.49,280.82a.62.62,0,0,1-.59-.43c-.44-1.34-.93-2.69-1.45-4a.63.63,0,0,1,.35-.82.62.62,0,0,1,.81.35c.53,1.34,1,2.72,1.48,4.08a.62.62,0,0,1-.4.79A.69.69,0,0,1,646.49,280.82Zm-4.13-9.91a.62.62,0,0,1-.56-.34c-.66-1.28-1.37-2.53-2.09-3.7a.62.62,0,0,1,1.06-.66c.74,1.2,1.46,2.48,2.14,3.79a.62.62,0,0,1-.27.84A.58.58,0,0,1,642.36,270.91Zm-5.85-9a.65.65,0,0,1-.49-.23,35.87,35.87,0,0,0-2.86-3.11.62.62,0,0,1,0-.88.63.63,0,0,1,.88,0,40.22,40.22,0,0,1,3,3.22.62.62,0,0,1-.48,1Zm-8-7.11a.66.66,0,0,1-.33-.09,21.15,21.15,0,0,0-3.75-1.81.63.63,0,1,1,.43-1.18,23.72,23.72,0,0,1,4,1.92.63.63,0,0,1-.32,1.16Z"/><path class="cls-7" d="M615.34,253.52a.65.65,0,0,1-.32-.09.63.63,0,0,1-.21-.86q.48-.8,1-1.71a.62.62,0,0,1,.5-.32,20.16,20.16,0,0,1,2.06-.06.63.63,0,1,1,0,1.25c-.53,0-1.07,0-1.6,0-.29.52-.57,1-.85,1.46A.63.63,0,0,1,615.34,253.52Z"/><path class="cls-7" d="M607.55,260.55a.62.62,0,0,1-.61-.49.63.63,0,0,1,.47-.75,7.25,7.25,0,0,0,3.53-1.79.62.62,0,0,1,.88.05.63.63,0,0,1-.05.89,8.58,8.58,0,0,1-4.08,2.07Z"/><path class="cls-7" d="M601.34,267.59a.62.62,0,0,1-.59-.42.64.64,0,0,1,.39-.8c.66-.22,1.14-.39,1.5-.49.11-.61.22-1.16.34-1.65a.63.63,0,0,1,.75-.46.61.61,0,0,1,.46.75q-.18.78-.36,1.77a.65.65,0,0,1-.43.64h0l-1.8.62Z"/><path class="cls-7" d="M596.42,269a.61.61,0,0,1-.34-.1.63.63,0,0,1-.19-.86,3.42,3.42,0,0,0,.47-1.89,8.56,8.56,0,0,0-.2-1.7.62.62,0,0,1,.48-.74.63.63,0,0,1,.74.48,9,9,0,0,1,.23,2,4.73,4.73,0,0,1-.66,2.56A.63.63,0,0,1,596.42,269Z"/><path class="cls-7" d="M594.61,259.05a.63.63,0,0,1-.57-.39c-.21-.49-.43-1-.59-1.55l-1.58-.21a.64.64,0,0,1-.54-.71.63.63,0,0,1,.71-.53l2,.27a.61.61,0,0,1,.53.46,13.59,13.59,0,0,0,.65,1.79.63.63,0,0,1-.34.82A.69.69,0,0,1,594.61,259.05Z"/><path class="cls-7" d="M586.32,256.1h-.09l-2-.27a.63.63,0,0,1,.16-1.24l2,.27a.63.63,0,0,1-.09,1.25Z"/><path class="cls-7" d="M452.25,559.62l-.15,0a11.6,11.6,0,0,0-1.88-.29.64.64,0,0,1-.58-.67.63.63,0,0,1,.67-.58,13.19,13.19,0,0,1,2.08.33.62.62,0,0,1-.14,1.23Z"/><path class="cls-7" d="M436.89,564.91a4.33,4.33,0,0,1-1.28-.2.61.61,0,0,1-.41-.78.62.62,0,0,1,.78-.41,3.35,3.35,0,0,0,2.62-.32.63.63,0,0,1,.56,1.12A5,5,0,0,1,436.89,564.91Zm5.93-3.25a.64.64,0,0,1-.52-.27.62.62,0,0,1,.16-.87,15.59,15.59,0,0,1,2.88-1.65.63.63,0,1,1,.48,1.16,13.92,13.92,0,0,0-2.65,1.51A.59.59,0,0,1,442.82,561.66Z"/><path class="cls-7" d="M432,561.85a.63.63,0,0,1-.47-.22c-.27-.31-.54-.65-.81-1a7,7,0,0,1-1.11.88.61.61,0,0,1-.86-.2.63.63,0,0,1,.19-.86,5.38,5.38,0,0,0,1.34-1.2.69.69,0,0,1,.5-.23.65.65,0,0,1,.49.26c.41.56.81,1.07,1.21,1.53a.63.63,0,0,1-.07.88A.59.59,0,0,1,432,561.85Z"/><path class="cls-7" d="M426.19,562.47a9.69,9.69,0,0,1-2-.23.63.63,0,0,1,.28-1.22,8.36,8.36,0,0,0,1.73.2h.16a.63.63,0,1,1,0,1.25Z"/><path class="cls-7" d="M418.62,562a.66.66,0,0,1-.35-.11.63.63,0,0,1-.17-.87c.33-.5.66-1.06,1-1.66a.62.62,0,0,1,.38-.31.61.61,0,0,1,.49.06c.59.35,1.17.65,1.72.91a.62.62,0,0,1,.29.83.61.61,0,0,1-.83.3c-.4-.19-.82-.41-1.25-.64-.24.43-.49.83-.74,1.21A.63.63,0,0,1,418.62,562Z"/><path class="cls-7" d="M409,566.52a.63.63,0,0,1-.27-1.19,7.32,7.32,0,0,1,2.72-.53,14.67,14.67,0,0,0,1.82-.2.62.62,0,0,1,.24,1.22,15.08,15.08,0,0,1-2,.23,6.11,6.11,0,0,0-2.25.41A.71.71,0,0,1,409,566.52Z"/><path class="cls-7" d="M406.48,574.48a.68.68,0,0,1-.31-.08c-.57-.33-1.15-.64-1.73-.93a.63.63,0,0,1,.56-1.12l.89.46c0-.35,0-.68.06-1a.63.63,0,0,1,.67-.58.64.64,0,0,1,.58.67c-.05.6-.08,1.25-.09,2a.65.65,0,0,1-.32.53A.68.68,0,0,1,406.48,574.48Z"/><path class="cls-7" d="M398.91,571.12a.64.64,0,0,1-.2,0c-1.28-.43-2.62-.81-4-1.14a.63.63,0,0,1-.46-.76.64.64,0,0,1,.75-.46c1.4.34,2.78.74,4.08,1.18a.62.62,0,0,1-.19,1.21Zm-10.22-2.29h-.09c-1.32-.18-2.71-.32-4.13-.43a.63.63,0,0,1-.58-.67.64.64,0,0,1,.67-.58c1.45.12,2.86.26,4.21.44a.63.63,0,0,1-.08,1.25Zm-25.15-.42a.63.63,0,0,1,0-1.25l4.2-.15a.66.66,0,0,1,.64.61.62.62,0,0,1-.6.64l-4.19.15Zm14.69-.3h0c-1.39,0-2.79,0-4.18,0h0a.62.62,0,0,1-.62-.62.61.61,0,0,1,.61-.63c1.41,0,2.82,0,4.22,0a.63.63,0,0,1,.61.64A.61.61,0,0,1,378.23,568.11Z"/><path class="cls-7" d="M355.25,568.62a.63.63,0,0,1,0-1.25l2,0a.63.63,0,0,1,.64.62.62.62,0,0,1-.61.63l-2,0Z"/><path class="cls-7" d="M637.59,263.46a.62.62,0,0,1-.44-.18.64.64,0,0,1,0-.89l2.57-2.61a.63.63,0,0,1,.89.88L638,263.27A.67.67,0,0,1,637.59,263.46Z"/><path class="cls-7" d="M600.89,420.09a.63.63,0,0,1-.19,0l-1.91-.59a.62.62,0,1,1,.37-1.19l1.91.58a.62.62,0,0,1,.41.78A.63.63,0,0,1,600.89,420.09Z"/><path class="cls-7" d="M608.59,422.45l-.18,0-1.91-.59a.63.63,0,0,1-.42-.78.64.64,0,0,1,.79-.42l1.91.59a.62.62,0,0,1-.19,1.22Z"/><path class="cls-7" d="M271.25,92.62h-.1a.62.62,0,0,1-.52-.71l.59-4a.63.63,0,1,1,1.24.18l-.6,4A.61.61,0,0,1,271.25,92.62Zm1.48-9.89h-.09a.62.62,0,0,1-.53-.71l.6-4a.62.62,0,1,1,1.23.18l-.59,4A.63.63,0,0,1,272.73,82.73Zm1.48-9.89h-.09a.62.62,0,0,1-.53-.71l0-.22a.62.62,0,1,1,1.23.19l0,.22A.62.62,0,0,1,274.21,72.84Z"/><path class="cls-7" d="M528.72,520.61a.59.59,0,0,1-.52-.32,7,7,0,0,1-.84-3.2.61.61,0,0,1,.59-.61.56.56,0,0,1,.58.56v.05a5.9,5.9,0,0,0,.71,2.67.58.58,0,0,1-.25.78A.54.54,0,0,1,528.72,520.61Zm2-7.61a.59.59,0,0,1-.48-.25.58.58,0,0,1,.15-.81,12.42,12.42,0,0,1,3.18-1.58l.31-.11a.57.57,0,0,1,.74.35.58.58,0,0,1-.35.75l-.31.11a11.78,11.78,0,0,0-2.91,1.43A.57.57,0,0,1,530.7,513Zm8.38-4.07a.59.59,0,0,1-.32-1.08,8.75,8.75,0,0,0,2.6-2.3.58.58,0,1,1,1,.63,10,10,0,0,1-2.94,2.65A.63.63,0,0,1,539.08,508.93Zm-9.61-3.14a.52.52,0,0,1-.24-.05,8.2,8.2,0,0,1-3.24-2.36.58.58,0,0,1,.13-.81.59.59,0,0,1,.82.12,7.05,7.05,0,0,0,2.76,2,.58.58,0,0,1,.3.77A.57.57,0,0,1,529.47,505.79Zm5.42-.12a.58.58,0,0,1-.55-.4.59.59,0,0,1,.37-.74q.67-.22,1.35-.48c.73-.26,1.5-.54,2.2-.74a.58.58,0,1,1,.33,1.12c-.67.19-1.38.45-2.13.72l-1.38.49A.63.63,0,0,1,534.89,505.67Z"/><path class="cls-7" d="M465.56,547.32a.63.63,0,0,1-.37-.12L462,544.82a.62.62,0,0,1,.74-1l3.22,2.38a.62.62,0,0,1-.38,1.12Zm-9.1-3.45h-.1l-2.9-.49a.62.62,0,0,1-.52-.61V541.7a.63.63,0,0,1,1.25,0v.53l2.38.4a.62.62,0,0,1-.11,1.24Zm-2.9-7.54a.63.63,0,0,1-.62-.52h-2.86a.63.63,0,0,1,0-1.25h3.48a.63.63,0,0,1,.63.62v.52A.63.63,0,0,1,453.56,536.33Zm-9.48-.52h-4a.63.63,0,0,1,0-1.25h4a.63.63,0,1,1,0,1.25Zm-4.63-5.37a.63.63,0,0,1-.63-.63v-3l-.27-.63a.63.63,0,0,1,1.15-.5l.32.75a.56.56,0,0,1,.05.25v3.18A.63.63,0,0,1,439.45,530.44ZM436.73,521a.62.62,0,0,1-.57-.37L434.57,517a.62.62,0,0,1,1.14-.5l1.6,3.67a.63.63,0,0,1-.33.82A.53.53,0,0,1,436.73,521Zm-4.32-9a.62.62,0,0,1-.51-.26l-2.32-3.26a.64.64,0,0,1,.15-.88.62.62,0,0,1,.87.15l2.32,3.27a.63.63,0,0,1-.15.87A.61.61,0,0,1,432.41,512Zm-7-5.77h-4a.63.63,0,0,1,0-1.25h4a.63.63,0,1,1,0,1.25Zm-9.85-.66a.66.66,0,0,1-.27-.06l-3.61-1.72a.63.63,0,0,1-.29-.84.62.62,0,0,1,.83-.29l3.61,1.72a.63.63,0,0,1,.3.83A.62.62,0,0,1,415.54,505.59Zm-9.33-3.29h-.1l-3.95-.59a.62.62,0,0,1-.53-.71.62.62,0,0,1,.71-.52l4,.59a.62.62,0,0,1,.52.71A.61.61,0,0,1,406.21,502.3Zm-9.89-1.48h-.1l-4-.6a.62.62,0,0,1-.53-.71.61.61,0,0,1,.71-.52l4,.59a.62.62,0,0,1,.52.71A.61.61,0,0,1,396.32,500.82Zm-9.94-1h0c-1.26,0-2.67,0-4,0a.63.63,0,0,1,0-1.25h0c1.33,0,2.75,0,4,0a.63.63,0,0,1,.62.63A.62.62,0,0,1,386.38,499.84Zm-10-.13a.69.69,0,0,1-.2,0c-.7-.23-1.74-.66-3.1-1.27a.63.63,0,0,1,.52-1.14c1.32.59,2.32,1,3,1.22a.63.63,0,0,1,.39.79A.62.62,0,0,1,376.4,499.71Z"/><path class="cls-9" d="M1191.17,753c-3.09,9.66-7.48,22.25-9.94,24-4.06,2.85-4.88.41-8.94,4.07s-.81,7.72-3.66,9.35-9.35-.41-13.82,4.06-2.85,11.79-8.13,13.82-12.2-2.84-17.08-2-12.6,1.63-15,7.32-5.69,48-12.19,51.22-7.73-6.1-14.23-3.66-14.64,27.65-19.92,30.49-21.14,7.32-24,16.67,2.85,17.48,2,25.61-1.22,15.05-5.69,17.89-7.31-4.06-15-2.44-20.33,5.29-28,3.25-17.89-24.39-23.58-25.2-9.76,21.55-16.26,24.39-12.2.41-17.48-10.16-6.1-18.7-17.08-22-22-4.87-24.79,4.88,2.44,25.61,7.72,33.75,3.25,20.32,15.45,21.54,16.67-15.85,24.39-16.67,13.42,4.07,11.79,8.54S941.38,985.94,943,994.07c.15.7.3,1.42.48,2.15a38.08,38.08,0,0,1-3.32-2.15c-7.32-5.28-13.82-1.63-19.92,3.25-2.68,2.15-3.56,5.5-3.69,8.56-7.74.53-15.5,3.39-18.26-4.9-3.26-9.76-4.48-41.87-13.42-43.9s-17.89,0-27.64-6.92-10.17-9.75-18.3-10.16-19.51,2.44-29.67-13.41-3.66-31.31-7.32-34.15-8.13,2.44-13.82,2.84-9.35-.81-15.45,5.69-14.23,14.64-21.55,15.86-11-.41-21.55,0-10.16,4.06-16.66,1.22.4-19.52-4.88-21.55-15.45,8.13-21.55,7.73-2-8.13-8.94-9.35-9.76-.82-13-9-19.92-24-17.08-35,13.83-8.94,14.64-13.82-1.63-8.54,3.25-17.08,4.07-13.41,22.36-21.54,17.48-8.13,21.14-7.32,8.13,5.69,9.76-2.85,6.91-52.84,5.69-58.13-11.79-14.23-8.54-22,14.64-3.25,15-7.73-10.57-2.84-11.79-7.31-2-10.17,4.88-10.57,13,6.91,22.77.81,13.41-10.57,17.07-10.16,4.48,19.51,17.48,22.76,26-1.22,33.75-9.76,14.63-9.75,15-15-6.91-4.47-7.32-9.75-1.22-11.79-3.66-14.64-12.19-7.32-8.94-11,26.83,7.32,34.15,6.51,12.19-7.73,21.14-7.73S880,631.44,882.43,627s5.29-9.76,11-9.76,2,12.2,4.88,13.42,8.53,5.28,6.5,12.6-6.91,15.86-2.44,27.24,13,17.48,22.77,17.48S942.19,679.41,952,679s13,2,15.45-1.22-2-8.13,8.13-8.95,43.09,7.73,48.78,2.85,19.51-38.21,26-38.21,6.91,35,12.2,39.43,10.16-.81,14.63,6.1-2.85,19.1,1.22,24,15.86,11.79,22.36,11.79c4.07,5.69,4.07,6.1,6.1,8.54s7.32-1.63,13.41-.81,23.18,8.53,32.93,11.79,16.67.4,19.92,5.28,2.44,11,8.54,13.42C1185.67,754.61,1187.75,753.19,1191.17,753Z"/><path class="cls-4" d="M220,515v3.85a7.83,7.83,0,0,1-3.78.92,7.92,7.92,0,1,1,0-15.83,7.83,7.83,0,0,1,3.78.92v3.85a4.88,4.88,0,0,0-3.72-1.58,4.73,4.73,0,0,0,0,9.45A4.88,4.88,0,0,0,220,515Z"/><path class="cls-4" d="M222.42,504.21h9.66V507h-6.39v3.34h5.9v2.77h-5.9v3.68h6.43v2.77h-9.7Z"/><path class="cls-4" d="M237.89,519.54h-3.33V504.21h4.66c3.48,0,5.94,1.83,5.94,4.89a4.36,4.36,0,0,1-2.73,4.16l4.45,6.28H243l-4-5.67h-1.14Zm0-8.32h1.31c1.55,0,2.56-.79,2.56-2.12s-1-2.16-2.56-2.16h-1.31Z"/><path class="cls-4" d="M252,519.54h-3.34V504.21h4.66c3.49,0,5.94,1.83,5.94,4.89a4.36,4.36,0,0,1-2.73,4.16l4.45,6.28h-3.88l-4-5.67H252Zm0-8.32h1.3c1.55,0,2.56-.79,2.56-2.12s-1-2.16-2.56-2.16H252Z"/><path class="cls-4" d="M276.91,519.54h-3.55L272,516.77h-6.3l-1.34,2.77h-3.53l8-16ZM267,514.21h3.82l-1.91-4Z"/><path class="cls-4" d="M283.38,504.21a7.67,7.67,0,1,1,0,15.33h-5V504.21ZM281.72,507v9.79h1.41a4.9,4.9,0,0,0,0-9.79Z"/><path class="cls-4" d="M308.58,511.88a7.89,7.89,0,1,1-7.9-7.92A7.89,7.89,0,0,1,308.58,511.88Zm-12.41,0a4.53,4.53,0,1,0,4.51-4.81A4.57,4.57,0,0,0,296.17,511.88Z"/><path class="cls-1" d="M485.43,552.86l4.73,15.95h-3.42l-2.36-8.14-4.59,8.56-4.64-8.56-2.33,8.14h-3.43l4.71-15.95,5.69,10.41Z"/><path class="cls-1" d="M506.46,568.81h-3.55L501.56,566h-6.3l-1.34,2.77h-3.53l8-15.95Zm-9.94-5.33h3.83l-1.92-4Z"/><path class="cls-1" d="M513,556.26v12.55h-3.36V556.26h-4.75v-2.77h12.85v2.77Z"/><path class="cls-1" d="M532.22,568.81h-3.54L527.33,566H521l-1.34,2.77h-3.53l8-15.95Zm-9.93-5.33h3.82l-1.91-4Z"/><path class="cls-1" d="M552.53,568.81H549L547.64,566h-6.3L540,568.81h-3.53l8-15.95Zm-9.93-5.33h3.82l-1.91-4Z"/><path class="cls-1" d="M559.06,556.26v12.55H555.7V556.26H551v-2.77h12.85v2.77Z"/><path class="cls-1" d="M565.76,553.49h3.34V566h6v2.77h-9.39Z"/><path class="cls-1" d="M591.57,568.81H588L586.68,566h-6.3L579,568.81h-3.52l8-15.95Zm-3.89-16.5h-2.41l-1.72-1.57-1.72,1.57h-2.42L582,549h3Zm-6,11.17h3.82l-1.91-4Z"/><path class="cls-1" d="M603.6,553.49h3.28v15.93l-10.59-9.59v9H593V552.88l10.58,9.62Z"/><path class="cls-1" d="M616.94,556.26v12.55h-3.36V556.26h-4.75v-2.77h12.85v2.77Z"/><path class="cls-1" d="M627,553.49v15.32h-3.33V553.49Z"/><path class="cls-1" d="M641,564.3v3.84a7.84,7.84,0,0,1-3.78.93,7.92,7.92,0,1,1,0-15.83,7.83,7.83,0,0,1,3.78.92V558a4.91,4.91,0,0,0-3.72-1.57,4.73,4.73,0,0,0,0,9.45A4.88,4.88,0,0,0,641,564.3Z"/><path class="cls-1" d="M657.91,568.81h-3.55L653,566h-6.3l-1.34,2.77h-3.53l8-15.95ZM648,563.48h3.83l-1.92-4Z"/><path class="cls-2" d="M601.43,127.22v3.84a7.84,7.84,0,0,1-3.78.93,7.92,7.92,0,1,1,0-15.83,7.83,7.83,0,0,1,3.78.92v3.84a4.91,4.91,0,0,0-3.71-1.57,4.73,4.73,0,0,0,0,9.45A4.88,4.88,0,0,0,601.43,127.22Z"/><path class="cls-2" d="M618.34,131.74h-3.55L613.44,129h-6.3l-1.34,2.77h-3.53l8-16Zm-9.94-5.34h3.82l-1.91-3.94Z"/><path class="cls-2" d="M634.27,131.74h-3.55L629.38,129h-6.3l-1.34,2.77h-3.53l8-16Zm-9.93-5.34h3.82l-1.91-3.94Z"/><path class="cls-2" d="M640.81,119.18v12.56h-3.36V119.18H632.7v-2.77h12.85v2.77Z"/><path class="cls-2" d="M650.85,116.41v15.33h-3.34V116.41Z"/><path class="cls-2" d="M664.45,116.41h3.28v15.94l-10.59-9.6v9h-3.27V115.8l10.58,9.62Z"/><path class="cls-2" d="M684.32,129a8,8,0,1,1-6-12.85,8.23,8.23,0,0,1,5.21,1.72v3.9a7.24,7.24,0,0,0-5.21-2.52,4.71,4.71,0,0,0-5,4.86,4.63,4.63,0,0,0,4.66,4.8,4.42,4.42,0,0,0,3-.9v-2.25h-3.53l.78-2.77h6.05Z"/><path class="cls-2" d="M700.91,131.74h-3.55L696,129h-6.29l-1.35,2.77h-3.53l8-16ZM691,126.4h3.83l-1.91-3.94Z"/><path class="cls-5" d="M163.8,429.58v5.58h-3.34V419.83h4.66c3.51,0,5.94,1.83,5.94,4.9s-2.43,4.85-5.94,4.85Zm0-2.73h1.3c1.55,0,2.56-.8,2.56-2.12s-1-2.17-2.56-2.17h-1.3Z"/><path class="cls-5" d="M185.87,435.16h-3.55L181,432.39h-6.3l-1.35,2.77h-3.52l8-16Zm-9.93-5.33h3.82l-1.91-3.95Z"/><path class="cls-5" d="M197.9,419.83h3.28v15.94l-10.58-9.6v9h-3.28V419.22l10.58,9.62Z"/><path class="cls-5" d="M211.24,422.6v12.56h-3.36V422.6h-4.75v-2.77H216v2.77Z"/><path class="cls-5" d="M230.47,435.16h-3.55l-1.34-2.77h-6.3l-1.34,2.77h-3.53l8-16Zm-9.93-5.33h3.82l-1.91-3.95Z"/><path class="cls-5" d="M242.51,419.83h3.27v15.94l-10.58-9.6v9h-3.28V419.22l10.59,9.62Z"/><path class="cls-5" d="M263.31,435.16h-3.54l-1.35-2.77h-6.29l-1.35,2.77h-3.53l8-16Zm-9.93-5.33h3.83l-1.92-3.95Z"/><path class="cls-5" d="M264.79,419.83h3.34v12.56h6v2.77h-9.38Z"/><path class="cls-6" d="M404.1,673.53v5.58h-3.34V663.78h4.66c3.5,0,5.94,1.83,5.94,4.9s-2.44,4.85-5.94,4.85Zm0-2.73h1.3c1.55,0,2.56-.8,2.56-2.12s-1-2.17-2.56-2.17h-1.3Z"/><path class="cls-6" d="M426.16,679.11h-3.54l-1.35-2.77H415l-1.34,2.77H410.1l8-16Zm-9.93-5.33h3.82l-1.91-3.95Z"/><path class="cls-6" d="M442.44,663.15l4.72,16h-3.42L441.39,671l-4.6,8.57L432.15,671l-2.33,8.15H426.4l4.7-16,5.69,10.42Z"/><path class="cls-6" d="M452.33,673.53v5.58H449V663.78h4.66c3.51,0,6,1.83,6,4.9s-2.44,4.85-6,4.85Zm0-2.73h1.3c1.56,0,2.57-.8,2.57-2.12s-1-2.17-2.57-2.17h-1.3Z"/><path class="cls-6" d="M474.4,679.11h-3.55l-1.34-2.77h-6.3l-1.34,2.77h-3.53l8-16Zm-9.93-5.33h3.82l-1.91-3.95Z"/><path class="cls-3" d="M439.27,42.31h-3.55l-1.34-2.77h-6.3l-1.34,2.77h-3.53l8-16ZM429.34,37h3.82L431.25,33Z"/><path class="cls-3" d="M455.55,26.35l4.72,16h-3.42l-2.35-8.15-4.6,8.57-4.64-8.57-2.33,8.15h-3.42l4.7-16,5.69,10.41Z"/><path class="cls-3" d="M476.57,42.31H473l-1.34-2.77h-6.3L464,42.31h-3.53l8-16ZM466.64,37h3.82L468.55,33Z"/><path class="cls-3" d="M489.76,39.54v2.77H477l7.75-12.56h-7.33V27H490l-7.73,12.56Z"/><path class="cls-3" d="M506.26,34.64a7.88,7.88,0,1,1-7.89-7.91A7.89,7.89,0,0,1,506.26,34.64Zm-12.41,0a4.53,4.53,0,1,0,9,0,4.53,4.53,0,1,0-9,0Zm8.68-8.84h-2.42l-1.72-1.57-1.72,1.57h-2.42l2.63-3.36h3Z"/><path class="cls-3" d="M519.12,27h3.27V42.92l-10.58-9.6v9h-3.28V26.37L519.12,36Z"/><path class="cls-3" d="M528.8,27V42.31h-3.34V27Z"/><path class="cls-3" d="M546.31,42.31h-3.55l-1.34-2.77h-6.3l-1.34,2.77h-3.53l8-16ZM536.38,37h3.82L538.29,33Z"/></svg>